<svg id="visual" viewBox="0 0 900 600" width="900" height="600" xmlns="http://www.w3.org/2000/svg" xmlns:xlink="http://www.w3.org/1999/xlink" version="1.1"><g fill="#efefef"><circle r="69" cx="791" cy="149"></circle><circle r="35" cx="351" cy="38"></circle><circle r="55" cx="552" cy="142"></circle><circle r="49" cx="765" cy="506"></circle><circle r="48" cx="329" cy="397"></circle><circle r="64" cx="174" cy="410"></circle><circle r="59" cx="215" cy="545"></circle><circle r="36" cx="548" cy="393"></circle><circle r="57" cx="566" cy="552"></circle><circle r="58" cx="707" cy="284"></circle><circle r="63" cx="443" cy="265"></circle><circle r="49" cx="53" cy="591"></circle><circle r="55" cx="423" cy="520"></circle><circle r="46" cx="9" cy="439"></circle><circle r="66" cx="27" cy="126"></circle><circle r="67" cx="245" cy="180"></circle><circle r="54" cx="862" cy="300"></circle><circle r="50" cx="37" cy="300"></circle><circle r="65" cx="895" cy="34"></circle><circle r="60" cx="671" cy="20"></circle><circle r="50" cx="145" cy="27"></circle><circle r="43" cx="491" cy="2"></circle><circle r="63" cx="896" cy="443"></circle></g></svg>