<svg id="visual" viewBox="0 0 1200 700" width="1200" height="700" xmlns="http://www.w3.org/2000/svg" xmlns:xlink="http://www.w3.org/1999/xlink" version="1.1"><path d="M0 586L50 582.2C100 578.3 200 570.7 300 563C400 555.3 500 547.7 600 552.2C700 556.7 800 573.3 900 575.3C1000 577.3 1100 564.7 1150 558.3L1200 552L1200 701L1150 701C1100 701 1000 701 900 701C800 701 700 701 600 701C500 701 400 701 300 701C200 701 100 701 50 701L0 701Z" fill="#5b49b7"></path><path d="M0 622L50 621.3C100 620.7 200 619.3 300 610.3C400 601.3 500 584.7 600 584C700 583.3 800 598.7 900 604.2C1000 609.7 1100 605.3 1150 603.2L1200 601L1200 701L1150 701C1100 701 1000 701 900 701C800 701 700 701 600 701C500 701 400 701 300 701C200 701 100 701 50 701L0 701Z" fill="#4a349b"></path><path d="M0 662L50 661.7C100 661.3 200 660.7 300 661.7C400 662.7 500 665.3 600 660.5C700 655.7 800 643.3 900 637C1000 630.7 1100 630.3 1150 630.2L1200 630L1200 701L1150 701C1100 701 1000 701 900 701C800 701 700 701 600 701C500 701 400 701 300 701C200 701 100 701 50 701L0 701Z" fill="#38207f"></path></svg>