<svg id="visual" viewBox="0 0 1200 700" width="1200" height="700" xmlns="http://www.w3.org/2000/svg" xmlns:xlink="http://www.w3.org/1999/xlink" version="1.1"><g stroke-width="1" stroke-linejoin="bevel"><path d="M632.7 366L530.3 479.7L682.7 443.7Z" fill="#463095" stroke="#463095"></path><path d="M632.7 366L534.3 357L530.3 479.7Z" fill="#4d38a1" stroke="#4d38a1"></path><path d="M530.3 479.7L645.7 592.3L682.7 443.7Z" fill="#3f288a" stroke="#3f288a"></path><path d="M428 458.7L514.3 591.3L530.3 479.7Z" fill="#5845b1" stroke="#5845b1"></path><path d="M530.3 479.7L514.3 591.3L645.7 592.3Z" fill="#4d38a1" stroke="#4d38a1"></path><path d="M534.3 357L428 458.7L530.3 479.7Z" fill="#5441ac" stroke="#5441ac"></path><path d="M819 361L634.7 266.3L632.7 366Z" fill="#3c2485" stroke="#3c2485"></path><path d="M632.7 366L634.7 266.3L534.3 357Z" fill="#3c2485" stroke="#3c2485"></path><path d="M634.7 266.3L567.3 221.3L534.3 357Z" fill="#5b49b7" stroke="#5b49b7"></path><path d="M534.3 357L376 387L428 458.7Z" fill="#4a349b" stroke="#4a349b"></path><path d="M645.7 592.3L778 582.3L682.7 443.7Z" fill="#432c90" stroke="#432c90"></path><path d="M682.7 443.7L819 361L632.7 366Z" fill="#5b49b7" stroke="#5b49b7"></path><path d="M778 582.3L826 491.7L682.7 443.7Z" fill="#38207f" stroke="#38207f"></path><path d="M826 491.7L819 361L682.7 443.7Z" fill="#432c90" stroke="#432c90"></path><path d="M642.7 79.7L547.3 125.7L567.3 221.3Z" fill="#3c2485" stroke="#3c2485"></path><path d="M412 208.3L376 387L534.3 357Z" fill="#3c2485" stroke="#3c2485"></path><path d="M428 458.7L386 576.3L514.3 591.3Z" fill="#4d38a1" stroke="#4d38a1"></path><path d="M278.7 483.7L386 576.3L428 458.7Z" fill="#5441ac" stroke="#5441ac"></path><path d="M497.3 700L671.7 700L645.7 592.3Z" fill="#5441ac" stroke="#5441ac"></path><path d="M645.7 592.3L671.7 700L778 582.3Z" fill="#3f288a" stroke="#3f288a"></path><path d="M497.3 700L645.7 592.3L514.3 591.3Z" fill="#513ca6" stroke="#513ca6"></path><path d="M418 700L497.3 700L514.3 591.3Z" fill="#5441ac" stroke="#5441ac"></path><path d="M567.3 221.3L412 208.3L534.3 357Z" fill="#3f288a" stroke="#3f288a"></path><path d="M935.3 243.3L813 213.3L819 361Z" fill="#3c2485" stroke="#3c2485"></path><path d="M819 361L813 213.3L634.7 266.3Z" fill="#5441ac" stroke="#5441ac"></path><path d="M567.3 221.3L547.3 125.7L412 208.3Z" fill="#4d38a1" stroke="#4d38a1"></path><path d="M910.3 544.3L913.3 437.7L826 491.7Z" fill="#3f288a" stroke="#3f288a"></path><path d="M826 491.7L913.3 437.7L819 361Z" fill="#513ca6" stroke="#513ca6"></path><path d="M910.3 544.3L826 491.7L778 582.3Z" fill="#5845b1" stroke="#5845b1"></path><path d="M671.7 700L777 700L778 582.3Z" fill="#5441ac" stroke="#5441ac"></path><path d="M386 576.3L418 700L514.3 591.3Z" fill="#4d38a1" stroke="#4d38a1"></path><path d="M642.7 79.7L567.3 221.3L634.7 266.3Z" fill="#4d38a1" stroke="#4d38a1"></path><path d="M777 700L910.3 544.3L778 582.3Z" fill="#5845b1" stroke="#5845b1"></path><path d="M376 387L278.7 483.7L428 458.7Z" fill="#432c90" stroke="#432c90"></path><path d="M386 576.3L286.7 700L418 700Z" fill="#5441ac" stroke="#5441ac"></path><path d="M255.7 372L278.7 483.7L376 387Z" fill="#5845b1" stroke="#5845b1"></path><path d="M259.7 252.3L255.7 372L376 387Z" fill="#3c2485" stroke="#3c2485"></path><path d="M813 213.3L642.7 79.7L634.7 266.3Z" fill="#513ca6" stroke="#513ca6"></path><path d="M894.3 143.7L820 145.7L813 213.3Z" fill="#5845b1" stroke="#5845b1"></path><path d="M813 213.3L820 145.7L642.7 79.7Z" fill="#463095" stroke="#463095"></path><path d="M913.3 437.7L961.3 338L819 361Z" fill="#5441ac" stroke="#5441ac"></path><path d="M1033.7 505.7L961.3 338L913.3 437.7Z" fill="#5b49b7" stroke="#5b49b7"></path><path d="M961.3 338L935.3 243.3L819 361Z" fill="#513ca6" stroke="#513ca6"></path><path d="M412 208.3L259.7 252.3L376 387Z" fill="#5b49b7" stroke="#5b49b7"></path><path d="M231.7 132.7L259.7 252.3L412 208.3Z" fill="#5441ac" stroke="#5441ac"></path><path d="M434 86.7L412 208.3L547.3 125.7Z" fill="#3c2485" stroke="#3c2485"></path><path d="M547.3 0L434 86.7L547.3 125.7Z" fill="#463095" stroke="#463095"></path><path d="M142.3 551.3L232.7 596.3L278.7 483.7Z" fill="#5845b1" stroke="#5845b1"></path><path d="M278.7 483.7L232.7 596.3L386 576.3Z" fill="#38207f" stroke="#38207f"></path><path d="M142.3 551.3L278.7 483.7L113.3 428.7Z" fill="#38207f" stroke="#38207f"></path><path d="M232.7 596.3L286.7 700L386 576.3Z" fill="#5845b1" stroke="#5845b1"></path><path d="M935.3 243.3L894.3 143.7L813 213.3Z" fill="#513ca6" stroke="#513ca6"></path><path d="M813 0L630.7 0L642.7 79.7Z" fill="#3f288a" stroke="#3f288a"></path><path d="M1087.7 603.3L1033.7 505.7L910.3 544.3Z" fill="#5b49b7" stroke="#5b49b7"></path><path d="M910.3 544.3L1033.7 505.7L913.3 437.7Z" fill="#5845b1" stroke="#5845b1"></path><path d="M961.3 338L1085.7 235.3L935.3 243.3Z" fill="#5441ac" stroke="#5441ac"></path><path d="M777 700L957.3 700L910.3 544.3Z" fill="#3c2485" stroke="#3c2485"></path><path d="M813 0L642.7 79.7L820 145.7Z" fill="#5441ac" stroke="#5441ac"></path><path d="M642.7 79.7L547.3 0L547.3 125.7Z" fill="#5441ac" stroke="#5441ac"></path><path d="M630.7 0L547.3 0L642.7 79.7Z" fill="#5441ac" stroke="#5441ac"></path><path d="M113.3 428.7L278.7 483.7L255.7 372Z" fill="#5845b1" stroke="#5845b1"></path><path d="M232.7 596.3L128.3 700L286.7 700Z" fill="#4d38a1" stroke="#4d38a1"></path><path d="M366 0L231.7 132.7L434 86.7Z" fill="#4a349b" stroke="#4a349b"></path><path d="M434 86.7L231.7 132.7L412 208.3Z" fill="#4d38a1" stroke="#4d38a1"></path><path d="M97.3 343L113.3 428.7L255.7 372Z" fill="#38207f" stroke="#38207f"></path><path d="M97.3 343L255.7 372L259.7 252.3Z" fill="#4d38a1" stroke="#4d38a1"></path><path d="M894.3 143.7L813 0L820 145.7Z" fill="#4d38a1" stroke="#4d38a1"></path><path d="M547.3 0L366 0L434 86.7Z" fill="#38207f" stroke="#38207f"></path><path d="M1200 428.7L1097.7 367L1033.7 505.7Z" fill="#4d38a1" stroke="#4d38a1"></path><path d="M1033.7 505.7L1097.7 367L961.3 338Z" fill="#4d38a1" stroke="#4d38a1"></path><path d="M935.3 243.3L1094.7 121.7L894.3 143.7Z" fill="#3f288a" stroke="#3f288a"></path><path d="M894.3 143.7L952.3 0L813 0Z" fill="#4d38a1" stroke="#4d38a1"></path><path d="M957.3 700L1087.7 603.3L910.3 544.3Z" fill="#5845b1" stroke="#5845b1"></path><path d="M99.3 239.3L97.3 343L259.7 252.3Z" fill="#3f288a" stroke="#3f288a"></path><path d="M1097.7 367L1085.7 235.3L961.3 338Z" fill="#4d38a1" stroke="#4d38a1"></path><path d="M0 596.3L128.3 700L142.3 551.3Z" fill="#463095" stroke="#463095"></path><path d="M142.3 551.3L128.3 700L232.7 596.3Z" fill="#3c2485" stroke="#3c2485"></path><path d="M0 477.7L142.3 551.3L113.3 428.7Z" fill="#5441ac" stroke="#5441ac"></path><path d="M231.7 132.7L99.3 239.3L259.7 252.3Z" fill="#513ca6" stroke="#513ca6"></path><path d="M172.3 90.7L99.3 239.3L231.7 132.7Z" fill="#38207f" stroke="#38207f"></path><path d="M226.7 0L172.3 90.7L231.7 132.7Z" fill="#3f288a" stroke="#3f288a"></path><path d="M957.3 700L1096.7 700L1087.7 603.3Z" fill="#463095" stroke="#463095"></path><path d="M1200 594.3L1200 428.7L1033.7 505.7Z" fill="#3c2485" stroke="#3c2485"></path><path d="M1094.7 121.7L952.3 0L894.3 143.7Z" fill="#3f288a" stroke="#3f288a"></path><path d="M366 0L226.7 0L231.7 132.7Z" fill="#38207f" stroke="#38207f"></path><path d="M1200 210.3L1094.7 121.7L1085.7 235.3Z" fill="#38207f" stroke="#38207f"></path><path d="M1085.7 235.3L1094.7 121.7L935.3 243.3Z" fill="#5845b1" stroke="#5845b1"></path><path d="M1200 594.3L1033.7 505.7L1087.7 603.3Z" fill="#5845b1" stroke="#5845b1"></path><path d="M1097.7 367L1200 370L1085.7 235.3Z" fill="#5441ac" stroke="#5441ac"></path><path d="M1200 428.7L1200 370L1097.7 367Z" fill="#3f288a" stroke="#3f288a"></path><path d="M0 352L0 477.7L113.3 428.7Z" fill="#513ca6" stroke="#513ca6"></path><path d="M0 352L113.3 428.7L97.3 343Z" fill="#463095" stroke="#463095"></path><path d="M0 216.3L0 352L99.3 239.3Z" fill="#5845b1" stroke="#5845b1"></path><path d="M99.3 239.3L0 352L97.3 343Z" fill="#4d38a1" stroke="#4d38a1"></path><path d="M0 216.3L99.3 239.3L0 141.7Z" fill="#3c2485" stroke="#3c2485"></path><path d="M1096.7 700L1200 594.3L1087.7 603.3Z" fill="#513ca6" stroke="#513ca6"></path><path d="M0 477.7L0 596.3L142.3 551.3Z" fill="#463095" stroke="#463095"></path><path d="M1200 76.7L1051.7 0L1094.7 121.7Z" fill="#5845b1" stroke="#5845b1"></path><path d="M1094.7 121.7L1051.7 0L952.3 0Z" fill="#4d38a1" stroke="#4d38a1"></path><path d="M1200 370L1200 210.3L1085.7 235.3Z" fill="#4d38a1" stroke="#4d38a1"></path><path d="M0 141.7L99.3 239.3L172.3 90.7Z" fill="#3f288a" stroke="#3f288a"></path><path d="M1096.7 700L1200 700L1200 594.3Z" fill="#513ca6" stroke="#513ca6"></path><path d="M0 596.3L0 700L128.3 700Z" fill="#5441ac" stroke="#5441ac"></path><path d="M226.7 0L113.3 0L172.3 90.7Z" fill="#38207f" stroke="#38207f"></path><path d="M113.3 0L0 141.7L172.3 90.7Z" fill="#513ca6" stroke="#513ca6"></path><path d="M1200 210.3L1200 76.7L1094.7 121.7Z" fill="#4d38a1" stroke="#4d38a1"></path><path d="M1200 76.7L1200 0L1051.7 0Z" fill="#5b49b7" stroke="#5b49b7"></path><path d="M113.3 0L0 0L0 141.7Z" fill="#4d38a1" stroke="#4d38a1"></path></g></svg>