<svg id="visual" viewBox="0 0 900 600" width="900" height="600" xmlns="http://www.w3.org/2000/svg" xmlns:xlink="http://www.w3.org/1999/xlink" version="1.1"><rect x="0" y="0" width="900" height="600" fill="#ffffff"></rect><defs><linearGradient id="grad1_0" x1="33.3%" y1="0%" x2="100%" y2="100%"><stop offset="20%" stop-color="#ffffff" stop-opacity="1"></stop><stop offset="80%" stop-color="#ffffff" stop-opacity="1"></stop></linearGradient></defs><defs><linearGradient id="grad2_0" x1="0%" y1="0%" x2="66.7%" y2="100%"><stop offset="20%" stop-color="#ffffff" stop-opacity="1"></stop><stop offset="80%" stop-color="#ffffff" stop-opacity="1"></stop></linearGradient></defs><g transform="translate(900, 0)"><path d="M0 297.5C-38.6 292.9 -77.2 288.4 -113.8 274.8C-150.5 261.3 -185.3 238.7 -209.3 209.3C-233.4 179.9 -246.7 143.6 -259.6 107.5C-272.5 71.5 -285 35.8 -297.5 0L0 0Z" fill="#0d6088"></path></g><g transform="translate(0, 600)"><path d="M0 -297.5C41.2 -295.4 82.3 -293.3 113.8 -274.8C145.3 -256.3 167.1 -221.3 192.3 -192.3C217.5 -163.4 246.1 -140.5 264.2 -109.4C282.3 -78.4 289.9 -39.2 297.5 0L0 0Z" fill="#0d6088"></path></g></svg>