<svg id="visual" viewBox="0 0 900 600" width="900" height="600" xmlns="http://www.w3.org/2000/svg" xmlns:xlink="http://www.w3.org/1999/xlink" version="1.1"><rect x="0" y="0" width="900" height="600" fill="#ffffff"></rect><defs><linearGradient id="grad1_0" x1="33.3%" y1="0%" x2="100%" y2="100%"><stop offset="20%" stop-color="#ffffff" stop-opacity="1"></stop><stop offset="80%" stop-color="#ffffff" stop-opacity="1"></stop></linearGradient></defs><defs><linearGradient id="grad2_0" x1="0%" y1="0%" x2="66.7%" y2="100%"><stop offset="20%" stop-color="#ffffff" stop-opacity="1"></stop><stop offset="80%" stop-color="#ffffff" stop-opacity="1"></stop></linearGradient></defs><g transform="translate(900, 0)"><path d="M0 309C-38.9 302.4 -77.8 295.9 -117.5 283.6C-157.1 271.4 -197.5 253.4 -224.2 224.2C-250.8 194.9 -263.7 154.4 -278.1 115.2C-292.5 76 -308.5 38 -324.5 0L0 0Z" fill="#00a896"></path></g><g transform="translate(0, 600)"><path d="M0 -308C34.3 -292.9 68.6 -277.7 111.4 -268.8C154.1 -260 205.2 -257.4 229.5 -229.5C253.7 -201.5 251 -148.1 255 -105.6C258.9 -63.1 269.5 -31.6 280 0L0 0Z" fill="#00a896"></path></g></svg>