<?xml version="1.0" encoding="UTF-8"?>
<svg xmlns="http://www.w3.org/2000/svg" version="1.1" viewBox="0 0 1000 1000">
  <defs>
    <style>
      .cls-1 {
        fill: #292929;
      }

      .cls-2 {
        fill: #d43539;
        fill-rule: evenodd;
      }

      .cls-3 {
        fill: #2b2a2a;
      }
    </style>
  </defs>
  <!-- Generator: Adobe Illustrator 28.7.1, SVG Export Plug-In . SVG Version: 1.2.0 Build 142)  -->
  <g>
    <g id="Layer_1">
      <g>
        <polygon class="cls-2" points="434.7 268.2 563.7 268.2 499.6 332.3 499.3 332.6 434.7 268.2"/>
        <polygon class="cls-2" points="434.7 396.9 563.7 396.9 499.6 332.9 499.3 332.6 434.7 396.9"/>
        <polygon class="cls-2" points="435.8 267.9 435.8 396.9 371.8 332.9 371.5 332.6 435.8 267.9"/>
        <polygon class="cls-2" points="563.4 267.9 563.4 396.9 627.4 332.9 627.7 332.6 563.4 267.9"/>
        <path class="cls-3" d="M694.6,517.7c0,9.4-2.9,18.1-7,25.5-.5,0-24.1,4.7-34.9-2.8-1.6-1.1-3.5-2.3-3.4-2.3-.5.1-7.2,4.9-7.2,4.9l-51.7.3-3.9-6.7s-5.5,7.5-12.6,6.7c0,0-107.1.5-107.1.5v-102.2l12.4-15.9,1.6,87.8s-2.3,11.4,8.3,11.8c0,.9,93.1.2,93.1,0,0,0,7.7,1.4,5.7-17,0,.6,16.5-17.8,16.5-17.8,0,0,.5,24.9-7.9,33.5,0,2.5,51.5,1.4,51.6,1.2,0,0,1.6-6.8,0-13.4.5.1,1.9-7.4,17.3-19.1.5.1-7.4,30.9-7.4,30.9,0,0,8.3,3,15.9,2.6,0,.6,10.3.2,10.3.2,0,0-4-20.1-3.9-20.1-.3-.4,14.3-16.3,14.4-16.5,0,0,.2,13.5,0,27.8M442.9,530.8c-.5,1-2.8,12.6-2.8,12.6h-93.4s-42.4-1-36.8-35.7c0,0,7.8-25.2,17.5-29.1.3.2-1.5,5.4-1.6,5.4,0,0-4.5,7.4-5.7,15.9-.5,3.6,0,6.8,1.4,10.6,1,2.7,2.7,5.2,4.9,7.7,0,.3,8.4,7.9,17.5,7.2,0,.2,91.1,0,91.1,0,0,0,1.6-10.8-12.6-32.9l9.8-18.8s10.8,16.7,13.6,36.3c-.1.2-.6,16.2-2.9,20.8M385.1,585.4l-19.8-12.1,8.8-14.4,19.8,11.8-8.8,14.7Z"/>
        <path class="cls-1" d="M682.2,661.9c3.3-4.4,5-9.5,5-15.1s-2.1-12.4-6.4-17.5c-4.3-5.1-10.5-8.7-18.6-10.6-5.4-1.3-12.5-2-21.4-2h-47.7v3.1h4.2c4.2,0,7.3,1.2,9.5,3.6,1.6,1.8,2.4,6.2,2.4,13.2v72.8c0,6.3-.6,10.5-1.8,12.4-2,3-5.3,4.5-9.9,4.5h-4.2v3.1h52.1c12.4,0,21.7-1.2,27.7-3.5,6.1-2.4,10.8-6.1,14.3-11.2s5.2-10.5,5.2-16.1-2.7-13.6-7.9-18.7c-3.8-3.6-9.5-6.3-17.1-8,6.5-2.2,11.5-5.5,14.8-9.9M624.7,624c4.3-1.2,9.2-1.8,14.7-1.8,10.1,0,17.8,2.3,23,7,5.3,4.7,7.9,10.3,7.9,16.9s-1,8.2-3.2,11.8-5.2,6.3-9.2,8-9.9,2.6-17.8,2.6-5.9-.1-8.5-.3c-2.6-.2-4.9-.5-6.9-.9v-43.2h0ZM624.7,675c1.4-.3,3.4-.5,5.8-.6s5.3-.2,8.6-.2c7.7,0,14.3,1.2,19.5,3.5s9.1,5.5,11.4,9.5c2.3,4,3.5,8.3,3.5,12.6,0,6.6-2.6,12.2-7.7,16.7s-12.6,6.8-22.5,6.8-12.4-.8-18.7-2.3v-46.1h0Z"/>
        <path class="cls-1" d="M584.4,661.9c3.3-4.4,5-9.5,5-15.1s-2.1-12.4-6.4-17.5c-4.3-5.1-10.5-8.6-18.7-10.6-5.4-1.3-12.5-2-21.4-2h-47.7v3.1h4.2c4.2,0,7.3,1.2,9.5,3.6,1.6,1.8,2.4,6.2,2.4,13.2v72.8c0,6.3-.6,10.5-1.8,12.4-2,3-5.3,4.5-9.9,4.5h-4.2v3.1h52.1c12.4,0,21.7-1.2,27.7-3.5,6.1-2.4,10.8-6.1,14.3-11.2s5.2-10.5,5.2-16.1-2.7-13.6-7.9-18.7c-3.8-3.6-9.5-6.3-17.1-8,6.6-2.3,11.5-5.5,14.9-10M526.8,624c4.3-1.2,9.2-1.8,14.7-1.8,10.1,0,17.8,2.3,23,7,5.3,4.7,7.9,10.3,7.9,16.9s-1,8.2-3.2,11.8-5.2,6.3-9.2,8-9.9,2.6-17.8,2.6-5.9-.1-8.5-.3c-2.6-.2-4.9-.5-6.9-.9v-43.2h0ZM526.8,675c1.4-.3,3.4-.5,5.8-.6s5.3-.2,8.6-.2c7.7,0,14.3,1.2,19.5,3.5s9.1,5.5,11.4,9.5,3.5,8.3,3.5,12.6c0,6.6-2.6,12.2-7.7,16.7s-12.6,6.8-22.5,6.8-12.4-.8-18.7-2.3v-46.1h0Z"/>
        <path class="cls-1" d="M368.3,614.1c-.5,2.6-1.3,4.3-2.1,5.2s-2,1.3-3.5,1.3-3.4-.7-6.4-2.1c-6.6-2.9-12.8-4.4-18.7-4.4-9.4,0-17.1,2.9-23.2,8.8-6.1,5.8-9.1,12.8-9.1,20.8s1,8.9,3.1,12.8c2.1,3.9,5.1,7.4,9.1,10.6,4,3.2,10.7,7.5,20.2,12.9s15.2,9,17.3,10.6c3.1,2.4,5.5,5.1,7,7.9s2.3,5.6,2.3,8.4c0,5-2,9.3-5.9,12.9-3.9,3.6-9.3,5.5-16.1,5.5s-11.3-1.3-16.2-4c-4.9-2.7-8.5-6-11-10-2.4-4-4.3-10-5.7-18.1h-3v38.6h3c.4-2.6,1-4.3,1.7-5.1.8-.8,1.8-1.3,3.2-1.3s4.7.9,10,2.6,8.8,2.8,10.5,3.1c2.8.5,5.8.8,9,.8,10.2,0,18.5-3.1,25.1-9.2,6.5-6.2,9.7-13.5,9.7-22.1s-1-8.8-3.1-12.9-5-7.7-8.7-10.7-10.8-7.3-21.1-13c-12.6-6.9-20.7-12.5-24-16.6-2.3-2.8-3.5-5.9-3.5-9.4s1.8-8.5,5.5-12c3.7-3.5,8.4-5.3,14-5.3s9.8,1.3,14.5,3.9,8.3,6.1,10.8,10.6,4.3,10.4,5.3,17.8h3v-39h-2.9Z"/>
        <path class="cls-1" d="M462.8,707.8c2.2,5.3,3.2,9.1,3.2,11.5s-.8,3.4-2.3,4.6c-1.6,1.3-4.5,2-8.9,2.3v3.1h43.5v-3.1c-4.5-.3-8-1.6-10.6-3.8-2.5-2.3-5.3-7.1-8.4-14.7l-38.5-93.7h-2.8l-38.8,92.7c-3.3,8.1-6.4,13.5-9.2,16.2-1.3,1.3-4.3,2.4-9,3.2v3.1h34.8v-3.1c-5.3-.4-8.8-1.2-10.4-2.5-1.6-1.3-2.4-2.8-2.4-4.5s.9-5.4,2.8-9.8l7.5-17.8h42.7l6.7,16.2ZM415.9,685.4l19.2-45.5,18.7,45.5h-37.9Z"/>
      </g>
    </g>
  </g>
</svg>