<?xml version="1.0" encoding="utf-8"?>
<!-- Generator: Adobe Illustrator 27.2.0, SVG Export Plug-In . SVG Version: 6.00 Build 0)  -->
<svg version="1.1" xmlns="http://www.w3.org/2000/svg" xmlns:xlink="http://www.w3.org/1999/xlink" x="0px" y="0px"
	 viewBox="0 0 1000 1000" style="enable-background:new 0 0 1000 1000;" xml:space="preserve">
<style type="text/css">
	.st0{fill:#1384C0;}
</style>
<g id="Layer_1">
	<g>
		<path class="st0" d="M204.5,522.8c0-4,3.6-6.6,9.4-6.6c4.4,0,7.7,0.6,10.5,2c0,1,0,5.3,0,6.1c-2.2,2.8-6.4,5.8-11.2,5.8
			C207.6,530.1,204.5,527.5,204.5,522.8 M198.5,491.4l-0.7,0.5l4.7,9.1l0.9-0.5c3.7-2.1,7.6-3,12.6-3c3.9,0,8.5,1.3,8.5,7.6
			c0,0,0,1.3,0,2.4c-2.8-1-6.1-1.6-10.2-1.6c-13.1,0-20.9,6.4-20.9,17.2c0,12.4,9.2,17.9,18.4,17.9c4.6,0,9-2,12.8-5.1
			c0,1.4,0,4.1,0,4.1H236v-35.4c0-11.3-7.2-17.8-19.8-17.8C209.2,486.7,203.6,488.2,198.5,491.4z"/>
		<path class="st0" d="M281.2,493.7c-3-4.5-7.4-7-13.8-7c-4.5,0-8.2,1.9-11,4.7c0-1.4,0-3.7,0-3.7h-11.8v52.1h11.8v-30.4
			c0-7.8,2.9-11.8,8.7-11.8c5.2,0,8.7,2.2,8.7,12.8v29.4h11.8v-30.4c0-7.8,2.9-11.8,8.7-11.8c5.2,0,8.7,2.2,8.7,12.8v29.4h11.8
			v-29.8c0-15.5-6.1-23.4-18.2-23.4C288.9,486.7,284.8,489.5,281.2,493.7"/>
		<path class="st0" d="M345.5,497.7c6.9,0,10.3,5.6,10.3,17.3c0,9.9-3.3,14.9-9.9,14.9c-4.4,0-8.7-3.3-10.9-6.3c0,0,0-19.4,0-20.1
			C336.6,501.7,340.5,497.7,345.5,497.7 M333.8,458.3l-10.3,5.4v76.2h11.7c0,0,0-2.4,0-3.7c2.8,2.4,6.8,4.8,11.7,4.8
			c9.6,0,20.8-6.9,20.8-26.3c0-17.8-7.4-27.9-20.3-27.9c-4.3,0-8.2,1.8-12.2,5c0-3.2,0-34.1,0-34.1L333.8,458.3z"/>
		<path class="st0" d="M382.7,522.8c0-4,3.6-6.6,9.4-6.6c4.4,0,7.7,0.6,10.5,2c0,1,0,5.3,0,6.1c-2.2,2.8-6.4,5.8-11.2,5.8
			C385.8,530.1,382.7,527.5,382.7,522.8 M376.6,491.4l-0.8,0.5l4.7,9.1l0.9-0.5c3.7-2.1,7.6-3,12.6-3c3.9,0,8.5,1.3,8.5,7.6
			c0,0,0,1.3,0,2.4c-2.8-1-6.1-1.6-10.2-1.6c-13.1,0-20.9,6.4-20.9,17.2c0,12.4,9.2,17.9,18.4,17.9c4.5,0,9-2,12.8-5.1
			c0,1.4,0,4.1,0,4.1h11.6v-35.4c0-11.3-7.2-17.8-19.8-17.8C387.4,486.7,381.7,488.2,376.6,491.4z"/>
		<path class="st0" d="M144.2,501.9c0,10.5,7.7,13.3,19.6,16.2c10.3,2.6,12.2,4.4,12.2,6.9c0,1.6,0,5.7-10.7,5.7
			c-5.1,0-10.6-2-14.3-5.4l-0.9-0.9l-8.6,7.1l1.1,1.1c5.5,5.4,13.3,8.5,22,8.5c14.8,0,23.3-6,23.3-16.6c0-10.5-9.1-13.7-20-16.5
			c-10.1-2.6-11.8-4.1-11.8-6.4c0-3,3.1-4.8,8.4-4.8c5.3,0,9.2,1.4,12.8,4.4l1,0.8l8.5-7.3l-1.3-1.1c-5.9-4.9-12.3-7.1-20.2-7.1
			C152.8,486.5,144.2,492.8,144.2,501.9"/>
		<path class="st0" d="M513,537.6l-30.8-52.4c-1.1-2-1.4-3.6-1.4-5.8c0-10.2,8.3-18.5,18.5-18.5c10.3,0,18.5,8.3,18.5,18.5
			c0,2.2-0.6,5.3-2,7.9c-1.1,2.1-7.4,11.5-7.4,11.5l-8-13.7l2-2.7c0.6-0.9,1.2-1.8,1.2-3c0-2.4-2-4.4-4.4-4.4c-2.4,0-4.3,2-4.3,4.4
			c0,1.2,0.6,1.8,1.3,3.1l18.5,31c3.2,5.5,3.9,9.3,3.3,14.1C517.3,532.8,513,537.6,513,537.6"/>
		<path class="st0" d="M502.2,555.5l-7.9-13.5c0,0-1.5,2.6-2.9,3.8c-1,0.8-2.6,1-4.2,1c0,0-6.7,0-9.2,0c-2.2,0-3.5-2-4.2-2.8
			c0,0-12.7-20.7-14.1-22.9c-1.4-2.2-1.7-5.1-1.5-6.5c0,0,0-27.8,0-30.7c0-2.8,2.2-5.7,3-6.5c0.8-0.8,17.1-21.2,18.6-23.1
			c1.5-1.9,3.5-2.4,4.8-2.4c0,0,29.1,0,31.2,0c2,0,3.7,1.5,4.8,3c0,0,18.2,22.2,19.4,23.6c1.4,1.6,2,3.5,2,4.8c0,0,0,34,0,35.5
			c0,1.8-0.5,3.2-1.2,4.4c0,0-12.3,20.5-13.1,21.7c-0.9,1.1-1.7,1.5-3,1.5c0,0-6.6,0-7.5,0c-1,0-1.9-0.7-2.4-1.5l-25-42.9
			c0,0-3.6,4.3-4.7,9.6c-1,4.6-0.2,9.5,1.7,12.6c0.6,1.1,18.7,32,18.7,32c1.8,3,4.1,3.5,5.5,3.5c0,0,20.2,0,22.2,0
			c2,0,4.2-3.3,4.6-4.3c0,0,14.9-24.4,16.4-27.1c1.5-2.7,1.5-4.3,1.5-6.8c0,0,0-39.4,0-43.3c0-3.2-1.4-4.4-2.5-5.7
			c0,0-24.5-29.3-26.2-31.3c-1.6-2-3.1-2.8-5.1-2.8h-45c-2.3,0-4.2,1.4-5.7,3.2c0,0-22.6,28.8-24.1,30.8c-1.5,2-2.5,4.3-2.5,6.5
			c0,0,0,39.8,0,41.5c0,3.5,1.8,6.2,2.7,7.5c0,0,16.8,27,18.2,29.1c1.3,2.1,4.1,2.8,6,2.8h24.7c1.6,0,3.8-0.6,5.6-3.6L502.2,555.5"
			/>
		<path class="st0" d="M638.8,547.8c-2.1,0-3.9,0.7-5.4,2c-1.5,1.3-2.3,2.9-2.3,4.8c0,1.9,0.7,3.5,2.2,4.8c1.5,1.3,3.3,2,5.5,2
			c2.2,0,4-0.7,5.5-2c1.5-1.3,2.2-2.9,2.2-4.8c0-1.9-0.8-3.4-2.3-4.8C642.7,548.4,640.9,547.8,638.8,547.8"/>
		<path class="st0" d="M789.6,528.3v-29h-11.5v21c0,5.7-4.8,7-8.1,7h-21.7c-4.2,0-6.4-2.2-6.4-7v-62.9l-11.6,6.1v59.4
			c0,11.1,6.9,16.7,20.8,16.7h17.6c3.8,0,7.3-0.8,11-2.9c4.9,2.6,13,3.4,19.3,3.4c7.1,0,12.8-1.7,16-3.1c4.5,1.4,13.7,3.1,20.6,3.1
			c8.4,0,14.4-2.1,18-5.3c3.4-3,5.1-7.5,5.1-13.2v-22.4h-11.5v20.5c0,7.8-6.5,9.3-11.4,9.3c-3,0-8.2-0.3-11.5-1.3v-28.4h-11.7v20.5
			c0,7.5-6.6,9.3-11.5,9.3C796.1,529,791.1,528.2,789.6,528.3"/>
		<path class="st0" d="M697.2,493.8c-6.6,0-12.7,2.3-16.9,8.7c-3.3,4.9-4.2,10.1-4.5,12.8c-0.4,3.5,0,7,0,7.7c0,2-0.9,3.3-2.1,3.7
			c-0.9,0.4-2.3,0.6-5.8,0.6h-15.4c-4.6,0-7.7-2.6-7.7-8v-20.2h-11.7v21.1c0,4.8-2.3,7.1-6.9,7.1H604c-4.3,0-6.4-2.2-6.4-7v-62.9
			l-11.7,6.1v59.5c0,11.1,7,16.7,20.9,16.7h18.9c5.7,0,10.3-0.9,13.8-2.9c3.5,1.9,8.1,2.9,12.5,2.9h15.2c7.1,0,9.8-1.4,12.3-4.7
			c4.1,7.5,10.8,10,18.6,10c8.8,0,14.3-4.1,17.8-9.8c2.3-3.8,4.1-9.7,4.1-15.4c0-5.8-1.4-13.5-5.9-19
			C709.7,495.7,704.4,493.8,697.2,493.8 M697.7,534.6c-3.3,0-5.9-1.3-7.6-3.9c-1.8-2.6-2.7-6.4-2.7-11.3c0-4.8,0.9-8.6,2.7-11.2
			c1.8-2.6,4.3-3.9,7.6-3.9c3.3,0,5.9,1.3,7.7,3.9c1.8,2.6,2.7,6.4,2.7,11.2c0,4.9-0.9,8.6-2.7,11.3
			C703.6,533.3,701,534.6,697.7,534.6z"/>
	</g>
</g>
<g id="Layer_2">
</g>
</svg>
