<?xml version="1.0" encoding="utf-8"?>
<!-- Generator: Adobe Illustrator 27.2.0, SVG Export Plug-In . SVG Version: 6.00 Build 0)  -->
<svg version="1.1" xmlns="http://www.w3.org/2000/svg" xmlns:xlink="http://www.w3.org/1999/xlink" x="0px" y="0px"
	 viewBox="0 0 1000 1000" style="enable-background:new 0 0 1000 1000;" xml:space="preserve">
<style type="text/css">
	.st0{fill:#158779;}
	.st1{fill:#F5AF1A;}
	.st2{fill:#757476;}
</style>
<g id="Layer_1">
	<g>
		<path class="st0" d="M790.2,431.6c-37.8,0-68.4,30.7-68.4,68.6c0,25.2,13.6,47.2,33.7,59.2c-13.2-10.3-21.8-26.2-22.1-44
			c-0.5-31.1,25.4-56.3,56.7-56.3h6.8v68.2c24.9-3.2,44.2-23.3,44.2-47.6C841.2,453.1,818.4,431.6,790.2,431.6"/>
		<path class="st1" d="M790.2,568.4c37.8,0,68.4-30.7,68.4-68.6c0-25.2-13.6-47.2-33.7-59.1c13.2,10.3,21.8,26.2,22.1,44
			c0.5,31.1-25.4,56.3-56.7,56.3h-6.8v-68.2c-24.9,3.1-44.1,23.3-44.1,47.6C739.3,546.8,762.1,568.4,790.2,568.4"/>
		<path class="st2" d="M172.1,550.4c0,3.1-0.5,5.6-1.5,7.4c-1,1.9-2.3,3.2-3.9,4.2c-1.6,0.9-3.4,1.5-5.4,1.8c-2,0.3-3.9,0.4-5.8,0.4
			c-3.1,0-5.6-0.4-7.5-1.3c-1.9-0.8-3.4-1.9-4.4-3.4c-1-1.4-1.6-3.1-2-4.9c-0.3-1.9-0.4-3.9-0.3-5.9h9.9c0,1.1,0.1,2.2,0.1,3.2
			c0.1,1,0.3,1.9,0.6,2.7c0.4,0.8,0.9,1.4,1.7,1.8c0.8,0.4,1.8,0.7,3.2,0.7c1.7,0,2.9-0.5,3.7-1.5c0.8-1,1.3-2.3,1.3-3.9
			c0-1.4-0.5-2.7-1.5-3.7c-1-1.1-2.2-2.1-3.7-3c-1.5-0.9-3.1-1.8-4.8-2.8c-1.7-0.9-3.3-2-4.8-3.3c-1.5-1.3-2.7-2.7-3.7-4.4
			c-1-1.7-1.5-3.7-1.5-6.1c0-1.8,0.2-3.6,0.8-5.2c0.5-1.6,1.3-3,2.5-4.3c1.2-1.2,2.8-2.2,4.8-2.9c2-0.7,4.6-1.1,7.6-1.1
			c4.8,0,8.4,1.2,10.8,3.4c2.4,2.3,3.4,5.9,3.1,10.9h-9.7c0-0.9-0.1-1.8-0.2-2.6c-0.1-0.9-0.3-1.6-0.7-2.3c-0.3-0.7-0.8-1.2-1.4-1.7
			c-0.6-0.4-1.4-0.6-2.4-0.6c-1.6,0-2.9,0.4-3.8,1.3c-0.9,0.9-1.4,2.1-1.4,3.8c0,1.5,0.5,2.8,1.5,3.9c1,1,2.2,2,3.7,2.9
			c1.5,0.9,3.1,1.8,4.8,2.7c1.7,0.9,3.3,2,4.8,3.2c1.5,1.2,2.7,2.6,3.7,4.3C171.6,545.7,172.1,547.8,172.1,550.4"/>
		<path class="st2" d="M204,557.1c0,1,0.1,2,0.2,3.1c0.1,1.1,0.2,2.1,0.3,3.1h-8.6l-0.4-4.4h-0.1c-1,1.7-2.2,3-3.6,3.8
			c-1.4,0.8-3.1,1.2-5.1,1.2c-1.6,0-3-0.3-4.1-0.9c-1.1-0.6-2-1.3-2.7-2.3c-0.7-0.9-1.2-2.1-1.5-3.4c-0.3-1.3-0.5-2.6-0.5-4.1
			c0-2.8,0.5-5,1.5-6.5c1-1.5,2.3-2.6,3.8-3.4c1.6-0.7,3.5-1.2,5.5-1.3c2.1-0.2,4.2-0.2,6.3-0.2v-2.6c0-0.7,0-1.4-0.1-1.9
			c-0.1-0.6-0.2-1.1-0.5-1.5c-0.3-0.4-0.7-0.8-1.2-1c-0.5-0.2-1.2-0.3-2-0.3c-0.8,0-1.4,0.1-1.9,0.4c-0.5,0.3-0.8,0.7-1.1,1.1
			c-0.2,0.5-0.4,1-0.4,1.6c-0.1,0.6-0.1,1.3-0.1,1.9h-9.1c0-2,0.3-3.7,0.9-5c0.6-1.3,1.4-2.4,2.5-3.1c1.1-0.8,2.3-1.4,3.8-1.7
			c1.5-0.3,3.1-0.5,4.9-0.5c3,0,5.3,0.3,7,0.9c1.8,0.6,3.1,1.4,4,2.4c0.9,1,1.5,2.2,1.8,3.6c0.3,1.3,0.4,2.8,0.4,4.3V557.1
			 M194.9,547.2c-1.1,0-2.2,0.1-3.2,0.1c-1,0.1-1.9,0.3-2.6,0.6c-0.7,0.3-1.3,0.9-1.7,1.7c-0.4,0.8-0.6,1.9-0.6,3.4
			c0,0.6,0,1.2,0.1,1.9c0.1,0.6,0.2,1.2,0.4,1.7c0.3,0.5,0.6,0.9,1.1,1.3c0.5,0.3,1.1,0.5,1.8,0.5c1.4,0,2.4-0.4,3-1.2
			c0.7-0.8,1.1-1.8,1.3-3c0.2-1.2,0.3-2.3,0.3-3.6C195,549.2,194.9,548.1,194.9,547.2z"/>
		<path class="st2" d="M228,560h-0.1c-0.9,1.5-2,2.5-3.3,3.1c-1.3,0.6-2.8,0.9-4.5,0.9c-1.1,0-2.2-0.2-3.2-0.5
			c-1-0.3-1.9-0.8-2.7-1.4c-0.7-0.6-1.4-1.4-1.8-2.3c-0.4-0.9-0.7-1.9-0.7-3V530h9.3v23.1c0,1.5,0.2,2.7,0.6,3.7
			c0.4,1,1.4,1.4,2.9,1.4c1.5,0,2.5-0.5,2.9-1.4c0.4-1,0.6-2.2,0.6-3.7V530h9.3v26.8c0,1.1,0,2.2,0.1,3.3c0.1,1.1,0.2,2.2,0.3,3.3
			H228V560"/>
		<path class="st2" d="M261.2,563.3v-3.7h-0.1c-0.9,1.6-2,2.8-3.2,3.4c-1.3,0.6-2.8,0.9-4.6,0.9c-2.4,0-4.2-0.6-5.5-1.8
			c-1.3-1.2-2.2-2.7-2.7-4.4c-0.6-1.8-0.9-3.7-0.9-5.7c-0.1-2-0.1-3.9-0.1-5.7c0-1.7,0-3.5,0.1-5.5c0.1-2,0.4-3.8,0.9-5.6
			c0.5-1.7,1.4-3.1,2.7-4.3c1.2-1.2,3-1.7,5.3-1.7c1.7,0,3.1,0.3,4.3,0.9c1.2,0.6,2.3,1.6,3.3,3h0.1v-17.5h9.3v47.6H261.2
			 M257,558.3c1.6,0,2.6-0.9,3.1-2.8c0.5-1.9,0.7-4.9,0.7-9.1c0-1.7,0-3.2-0.1-4.6c0-1.4-0.2-2.6-0.4-3.5c-0.2-1-0.6-1.8-1.1-2.3
			c-0.5-0.6-1.2-0.9-2.2-0.9c-1,0-1.8,0.3-2.3,0.9c-0.5,0.5-0.9,1.3-1.2,2.3c-0.3,1-0.4,2.2-0.4,3.5c0,1.4-0.1,2.9-0.1,4.6
			c0,4.2,0.2,7.2,0.7,9.1C254.2,557.3,255.3,558.3,257,558.3z"/>
		<path class="st2" d="M287.6,515.7v7.3h-9.3v-7.3H287.6 M287.6,563.3h-9.3V530h9.3V563.3z"/>
		<polyline class="st2" points="332.5,534.7 332.5,515.7 342.4,515.7 342.4,563.3 332.5,563.3 332.5,542.1 321.1,542.1 321.1,563.3 
			311.2,563.3 311.2,515.7 321.1,515.7 321.1,534.7 332.5,534.7 		"/>
		<path class="st2" d="M363.4,564c-3,0-5.4-0.4-7.2-1.3c-1.8-0.9-3.2-2.1-4.1-3.7c-1-1.6-1.6-3.4-1.8-5.6c-0.3-2.2-0.4-4.6-0.4-7.2
			c0-2.3,0.1-4.5,0.4-6.5c0.3-2.1,0.9-3.9,1.8-5.4c0.9-1.5,2.3-2.7,4.1-3.7c1.8-0.9,4.2-1.3,7.3-1.3c3.1,0,5.5,0.4,7.3,1.3
			c1.8,0.9,3.2,2.2,4.1,3.7c0.9,1.5,1.5,3.3,1.8,5.4c0.3,2,0.4,4.2,0.4,6.5c0,2.6-0.1,5-0.4,7.2c-0.3,2.2-0.9,4-1.8,5.6
			c-0.9,1.6-2.3,2.8-4.1,3.7C368.8,563.6,366.4,564,363.4,564 M363.4,558c0.8,0,1.6-0.2,2.1-0.5c0.6-0.3,1-0.9,1.3-1.8
			c0.3-0.9,0.5-2.2,0.7-3.8c0.1-1.6,0.2-3.6,0.2-6.2c0-1.7,0-3.2-0.1-4.5c-0.1-1.3-0.3-2.4-0.6-3.3c-0.3-0.8-0.8-1.5-1.3-1.9
			c-0.6-0.4-1.3-0.6-2.3-0.6c-1,0-1.8,0.2-2.4,0.6c-0.6,0.5-1,1.1-1.3,1.9c-0.3,0.9-0.5,2-0.6,3.3c-0.1,1.3-0.1,2.8-0.1,4.5
			c0,2.6,0.1,4.6,0.2,6.2c0.1,1.6,0.3,2.9,0.7,3.8c0.3,0.9,0.7,1.5,1.3,1.8C361.8,557.9,362.5,558,363.4,558z"/>
		<rect x="384.3" y="515.7" class="st2" width="9.3" height="47.6"/>
		<rect x="401.3" y="515.7" class="st2" width="9.3" height="47.6"/>
		<path class="st2" d="M444,557.1c0,1,0,2,0.2,3.1c0.1,1.1,0.2,2.1,0.3,3.1h-8.6l-0.4-4.4h-0.1c-1,1.7-2.2,3-3.6,3.8
			c-1.4,0.8-3.1,1.2-5.1,1.2c-1.6,0-3-0.3-4.1-0.9c-1.1-0.6-2-1.3-2.8-2.3c-0.7-0.9-1.2-2.1-1.5-3.4c-0.3-1.3-0.5-2.6-0.5-4.1
			c0-2.8,0.5-5,1.5-6.5c1-1.5,2.3-2.6,3.8-3.4c1.6-0.7,3.4-1.2,5.5-1.3c2.1-0.2,4.2-0.2,6.3-0.2v-2.6c0-0.7,0-1.4-0.1-1.9
			c-0.1-0.6-0.2-1.1-0.5-1.5c-0.3-0.4-0.7-0.8-1.2-1c-0.5-0.2-1.2-0.3-2-0.3c-0.8,0-1.4,0.1-1.9,0.4c-0.5,0.3-0.8,0.7-1.1,1.1
			c-0.2,0.5-0.4,1-0.4,1.6c-0.1,0.6-0.1,1.3-0.1,1.9h-9.1c0-2,0.3-3.7,0.9-5c0.6-1.3,1.4-2.4,2.5-3.1c1.1-0.8,2.3-1.4,3.8-1.7
			c1.5-0.3,3.1-0.5,4.9-0.5c2.9,0,5.3,0.3,7.1,0.9c1.7,0.6,3.1,1.4,4,2.4c0.9,1,1.6,2.2,1.8,3.6c0.3,1.3,0.5,2.8,0.5,4.3V557.1
			 M435,547.2c-1.1,0-2.2,0.1-3.2,0.1c-1,0.1-1.8,0.3-2.6,0.6c-0.7,0.3-1.3,0.9-1.7,1.7c-0.4,0.8-0.6,1.9-0.6,3.4
			c0,0.6,0,1.2,0.1,1.9c0.1,0.6,0.2,1.2,0.5,1.7c0.3,0.5,0.6,0.9,1,1.3c0.5,0.3,1.1,0.5,1.8,0.5c1.4,0,2.4-0.4,3-1.2
			c0.7-0.8,1.1-1.8,1.3-3c0.2-1.2,0.3-2.3,0.3-3.6C435,549.2,435,548.1,435,547.2z"/>
		<path class="st2" d="M461,533.3h0.2c0.9-1.4,2-2.4,3.3-3c1.2-0.6,2.7-0.9,4.6-0.9c1.1,0,2.1,0.2,3.2,0.5c1,0.3,1.9,0.8,2.6,1.4
			c0.8,0.6,1.4,1.4,1.8,2.3c0.5,0.9,0.7,1.9,0.7,3.1v26.7H468v-23c0-1.5-0.2-2.7-0.6-3.7c-0.4-1-1.4-1.5-2.9-1.5
			c-1.5,0-2.5,0.5-2.9,1.5c-0.4,1-0.6,2.3-0.6,3.7v23h-9.3V530h9.3V533.3"/>
		<path class="st2" d="M501.2,563.3v-3.7h-0.1c-0.9,1.6-2,2.8-3.3,3.4c-1.3,0.6-2.8,0.9-4.6,0.9c-2.4,0-4.2-0.6-5.5-1.8
			c-1.3-1.2-2.2-2.7-2.7-4.4c-0.5-1.8-0.8-3.7-0.9-5.7c-0.1-2-0.1-3.9-0.1-5.7c0-1.7,0-3.5,0.1-5.5c0.1-2,0.4-3.8,0.9-5.6
			c0.5-1.7,1.4-3.1,2.7-4.3c1.3-1.2,3-1.7,5.4-1.7c1.7,0,3.1,0.3,4.3,0.9c1.2,0.6,2.3,1.6,3.3,3h0.1l0-17.5h9.3v47.6H501.2
			 M497,558.3c1.6,0,2.6-0.9,3.1-2.8c0.5-1.9,0.7-4.9,0.7-9.1c0-1.7,0-3.2-0.1-4.6c0-1.4-0.2-2.6-0.4-3.5c-0.2-1-0.6-1.8-1.1-2.3
			c-0.5-0.6-1.2-0.9-2.2-0.9c-1,0-1.8,0.3-2.3,0.9c-0.5,0.5-0.9,1.3-1.2,2.3c-0.2,1-0.4,2.2-0.4,3.5c0,1.4-0.1,2.9-0.1,4.6
			c0,4.2,0.2,7.2,0.7,9.1C494.3,557.3,495.3,558.3,497,558.3z"/>
		<path class="st2" d="M527.6,515.7v7.3h-9.3v-7.3H527.6 M527.6,563.3h-9.3V530h9.3V563.3z"/>
		<path class="st2" d="M551,563.3v-47.6h17.7c1.9,0,3.7,0.1,5.4,0.5c1.7,0.3,3.2,0.9,4.4,1.8c1.2,0.9,2.2,2.2,3,3.8
			c0.7,1.6,1.1,3.7,1.1,6.2c0,2.8-0.7,5.1-2,7c-1.4,1.8-3.4,3-6.1,3.6v0.1c1.8,0.3,3.2,0.7,4.3,1.4c1.2,0.7,2.1,1.5,2.7,2.6
			c0.6,1.1,1.2,2.3,1.4,3.6c0.3,1.4,0.4,2.9,0.4,4.5c0,2-0.3,3.7-0.8,5.2c-0.5,1.4-1.2,2.6-2.1,3.5c-0.9,0.9-1.8,1.6-2.9,2.2
			c-1.1,0.5-2.2,0.9-3.3,1.2c-1.1,0.3-2.1,0.5-3.1,0.5c-1,0.1-1.8,0.1-2.5,0.1H551 M561,535.2h6.7c0.5,0,1.1-0.1,1.7-0.3
			c0.6-0.2,1.2-0.6,1.7-1c0.5-0.4,1-1.1,1.3-1.9c0.3-0.8,0.5-1.8,0.5-2.9c0-1.8-0.6-3.2-1.6-4.3c-1.1-1.2-2.5-1.7-4.1-1.7H561V535.2
			z M561,556h5.5c0.5,0,1.2,0,1.9-0.1c0.8-0.1,1.5-0.3,2.2-0.8c0.7-0.5,1.3-1.1,1.9-2c0.5-0.9,0.8-2.2,0.8-3.9c0-2.1-0.5-3.8-1.4-5
			c-0.9-1.2-2.7-1.8-5.2-1.8H561V556z"/>
		<path class="st2" d="M615.9,557.1c0,1,0,2,0.2,3.1c0.1,1.1,0.2,2.1,0.3,3.1h-8.6l-0.4-4.4h-0.1c-1,1.7-2.2,3-3.6,3.8
			c-1.4,0.8-3.1,1.2-5.1,1.2c-1.6,0-3-0.3-4.1-0.9c-1.1-0.6-2-1.3-2.7-2.3c-0.7-0.9-1.2-2.1-1.5-3.4c-0.3-1.3-0.5-2.6-0.5-4.1
			c0-2.8,0.5-5,1.5-6.5c1-1.5,2.3-2.6,3.9-3.4c1.6-0.7,3.4-1.2,5.5-1.3c2.1-0.2,4.2-0.2,6.4-0.2v-2.6c0-0.7,0-1.4-0.1-1.9
			c-0.1-0.6-0.2-1.1-0.5-1.5c-0.3-0.4-0.7-0.8-1.2-1c-0.5-0.2-1.2-0.3-2-0.3c-0.8,0-1.4,0.1-1.9,0.4c-0.5,0.3-0.8,0.7-1.1,1.1
			c-0.2,0.5-0.4,1-0.4,1.6c-0.1,0.6-0.1,1.3-0.1,1.9h-9.1c0-2,0.3-3.7,0.9-5c0.6-1.3,1.4-2.4,2.6-3.1c1-0.8,2.3-1.4,3.8-1.7
			c1.5-0.3,3.1-0.5,4.9-0.5c2.9,0,5.3,0.3,7.1,0.9c1.7,0.6,3.1,1.4,4,2.4c0.9,1,1.5,2.2,1.8,3.6c0.3,1.3,0.4,2.8,0.4,4.3V557.1
			 M606.8,547.2c-1.2,0-2.2,0.1-3.2,0.1c-1,0.1-1.9,0.3-2.6,0.6c-0.7,0.3-1.3,0.9-1.7,1.7c-0.4,0.8-0.6,1.9-0.6,3.4
			c0,0.6,0,1.2,0.1,1.9c0,0.6,0.2,1.2,0.5,1.7c0.3,0.5,0.6,0.9,1.1,1.3c0.5,0.3,1.1,0.5,1.8,0.5c1.4,0,2.4-0.4,3-1.2
			c0.7-0.8,1.1-1.8,1.3-3c0.2-1.2,0.3-2.3,0.3-3.6C606.8,549.2,606.8,548.1,606.8,547.2z"/>
		<path class="st2" d="M632.9,533.3h0.1c0.9-1.4,2-2.4,3.3-3c1.2-0.6,2.7-0.9,4.6-0.9c1.1,0,2.2,0.2,3.2,0.5c1,0.3,1.9,0.8,2.6,1.4
			c0.8,0.6,1.4,1.4,1.8,2.3c0.5,0.9,0.7,1.9,0.7,3.1v26.7h-9.3v-23c0-1.5-0.2-2.7-0.6-3.7c-0.4-1-1.4-1.5-2.9-1.5
			c-1.5,0-2.5,0.5-2.9,1.5c-0.4,1-0.6,2.3-0.6,3.7v23h-9.3V530h9.3V533.3"/>
		<polyline class="st2" points="656.3,563.3 656.3,515.7 665.5,515.7 665.5,544.1 665.7,544.1 674.1,530 683.7,530 674.3,544.8 
			684.8,563.3 674.3,563.3 665.7,545.2 665.5,545.2 665.5,563.3 656.3,563.3 		"/>
		<path class="st2" d="M405.2,451.4c0,0-2.5,8.6-2.5,8.6c10.8,4.5,10.6,13.5,11,17.5l0,0.1c0,0-14.7,0-14.8,0c0,0.2-1.1,7.6-1.2,7.8
			c0.2,0,18.9,0,18.9,0c1.6-1.4,4.5-4.5,4.5-4.9C421.1,465.1,417.1,456,405.2,451.4 M632,439.3h-8.9v6.8h8.9V439.3z M223.4,439.1
			h-8.7v6.7h8.7V439.1z M231.3,477.6h-7.9v-24.8h-8.7v24.8c0,0-3.8,0-7.3,0c-0.5-13.6-4.8-21.9-15.9-26.2c0,0-2.5,8.6-2.5,8.6
			c10.8,4,10.6,13.5,11,17.5v0.1c0,0-14.7,0-14.8,0c0,0.2-1.1,7.6-1.2,7.8h56.5c0-0.2,0-49.5,0-49.5h-9.2V477.6z M674.2,435.9
			c0,0,0,49.3,0,49.5h9.2c0-0.2,0-49.5,0-49.5H674.2z M641.6,498.5h8.6v-6.9h-8.6V498.5z M316.4,477.6h-5.9v0
			c-0.3-7.1-1.1-21.4-17.1-25.6c-1.9-0.5-5.1-0.8-7.1-0.9c-0.5,1.7-1.2,7.6-1.2,7.6l0,0c-6.1,2.9-8.4,7.2-9.3,10
			c-0.3,1.1-0.5,2.2-0.5,3.3c0,2,0.5,3.9,1.5,5.6l0.1,0.1h-6.7c0,0,0-24.9,0-25c-2.4-0.5-5.8-0.7-9.4-0.1
			c-8.5,1.5-17.1,10.6-15.2,23.1c1.1,6.7,6.1,9.9,11.5,9.9h2c0.2,0,1.1-1.8,2.1-3c0.2-0.2,0.3,0,0.3,0.1c0,0,0,2.8,0,2.8
			c0,0.5,0,1.6-0.4,3.2c-0.5,2-2.1,2.9-4.9,2.9c-1,0-2.4-0.2-4-0.4c-0.1,0.4-0.8,3.8-1.2,5.9c0,0-0.3,1.4-0.3,1.6
			c2.9,0.6,5.3,0.7,6.8,0.6c1,0,4.3-0.3,6.7-1.6c2.7-1.4,4.5-3.7,5.3-6.8c0.3-1.2,0.5-3,0.5-3.9v-1.5c12.5,0,55.5,0,55.7,0
			c0-0.2,0-49.5,0-49.5h-9.3V477.6z M261.5,477.6h-2.3c-3.4,0-5.5-1.7-6.3-4.2c-2-6.7,4.1-12.3,8.5-12.5h0.1V477.6z M288.4,477.6
			l-1-0.1c-2.1-0.4-4-1.7-4.7-4.2c-1.5-5.2,2.3-8.7,5.8-10.4C288.4,463.2,288.4,477.6,288.4,477.6z M294.8,477.6v-16.2l0.1,0
			c7.7,3.7,7.9,11.9,8.1,16.1v0.1H294.8z M657.2,477.6h-8c0,0,0-24.6,0-24.7h-8.7c0,0.2,0,24.7,0,24.7h-8.7c0,0,0-24.6,0-24.7h-8.7
			c0,0.2,0,24.7,0,24.7H614v-41.7h-9.2v41.7h-16.7c-5.1,0-9.1-1.4-10.6-5.2l0-14.5h-8.6v18.4c2.5,5.8,7.7,9,16,9h81.7
			c0-0.2,0-49.5,0-49.5h-9.3V477.6z M333.4,485.4h9.3c0-0.2,0-49.5,0-49.5h-9.3C333.4,435.9,333.4,485.2,333.4,485.4z M529.5,477.6
			h-7.4c0,0,0-24.6,0-24.8h-8.7c0,0.2,0,23.1,0,23.1c0,1.3-0.3,1.7-1.2,1.7h-4.5c0,0,0-24.6,0-24.8h-8.7c0,0.2,0,23.1,0,23.1
			c0,1-0.2,1.7-1.3,1.7h-4.5c0,0,0-24.6,0-24.8h-8.7c0,0.2,0,23.1,0,23.1c0,1.6-0.5,1.7-1.3,1.7h-5.7c-0.1,0-2.9,0-3.9-0.1
			c-6.4-0.9-10.8-6.1-11-8.5c1.2-3.5,4.6-6.5,7.7-7.7c2.5-0.9,6.4-0.9,7.9-0.6v-9.1c-8.9-1-20.8,4.5-22.8,19.4c0,0,0,0,0,0
			c0,0.6,1,4,3.3,6.4l0.1,0.1h-9c0,0,0-24.9,0-25c-2.4-0.5-5.8-0.7-9.4-0.1c-8.5,1.5-17.1,10.6-15.2,23.1c1.1,6.7,6.1,9.9,11.5,9.9
			h2c0.2,0,1.1-1.8,2-3c0.2-0.2,0.3,0,0.3,0.1c0,0,0,2.8,0,2.8c0,0.5,0,1.6-0.4,3.2c-0.5,2-2.1,2.9-4.9,2.9c-1,0-2.4-0.2-4-0.4
			c-0.1,0.4-0.8,3.8-1.2,5.9c0,0-0.3,1.4-0.3,1.6c2.9,0.6,5.3,0.7,6.8,0.6c1,0,4.3-0.3,6.7-1.6c2.7-1.4,4.4-3.7,5.2-6.8
			c0.3-1.2,0.5-3,0.5-3.9v-1.5c0,0,89,0,89.2,0c0-0.2,0-49.5,0-49.5h-9.2V477.6z M441.1,477.6h-2.3c-3.4,0-5.5-1.7-6.3-4.2
			c-2-6.7,4.2-12.3,8.5-12.5h0.1V477.6z M546.5,485.4h9.2c0-0.2,0-49.5,0-49.5h-9.2C546.5,435.9,546.5,485.2,546.5,485.4z
			 M168.5,466.1L168.5,466.1c0.9-1.3,3.9-5.5,11.6-5.6v-8.9c-8.5,0.2-14.8,5.7-18.1,13.3c-1.4,3.2-1.5,5.2-1.6,5.5
			c0.5,0.3,13.3,7.4,13.3,7.4c-1.2,2-5.4,7.6-14.3,5.8c-4.3-0.8-7.1-3.6-8.6-6.7c0,0,0-13.6,0-13.7h-8.7c0,0.2,0,16.9,0,16.9
			c7,12.6,20.3,13.4,28.9,9.3c3.7-1.7,7.4-4.8,9.5-9.2c1.4-3,1.9-6.3,2-6.6C181.9,473.4,173.5,468.7,168.5,466.1L168.5,466.1z
			 M364.8,502.6h8.5v-6.9h-8.5V502.6z M377.3,502.6h8.5v-6.9h-8.5V502.6z M382.1,466.1L382.1,466.1c1-1.3,3.9-5.5,11.6-5.6v-8.9
			c-8.5,0.2-14.8,5.7-18.1,13.3c-1.4,3.2-1.5,5.2-1.5,5.5c0.5,0.3,13.3,7.4,13.3,7.4c-1.2,2-5.4,7.6-14.3,5.8
			c-4.3-0.8-7.1-3.6-8.5-6.7c0,0,0-13.6,0-13.7h-8.7c0,0.2,0,16.9,0,16.9c7,12.6,20.3,13.4,28.9,9.3c3.7-1.7,7.4-4.8,9.5-9.2
			c1.4-3,1.9-6.3,2-6.6c-0.5-0.3-8.9-5-13.9-7.5L382.1,466.1z M164.1,502.6h8.5v-6.9h-8.5V502.6z M151.6,502.6h8.5v-6.9h-8.5V502.6z
			 M581.3,455.2h16.5l0-5.1h-4.2l-1.4,0l-0.6,0c-0.8-0.1-3.1-1.5-3.7-2.6c-0.1-0.2-0.2-0.3-0.2-0.5l0-0.2c0.9-1.9,3.5-3.1,7.8-3.7
			c0,0,0.5-0.1,0.5-0.1l0.2,0l-0.8-5.6l-0.2,0l-0.1,0l0,0c-1,0-2.3,0.3-2.7,0.5c-4.6,1.3-7.9,4.5-9.2,8.8c0,0.1,0,0.3,0,0.3
			c0,0.9,0.8,2.1,1.7,3c-0.6,0-3.6,0-3.6,0L581.3,455.2z"/>
	</g>
</g>
<g id="Layer_2">
</g>
</svg>
