<?xml version="1.0" encoding="utf-8"?>
<!-- Generator: Adobe Illustrator 22.0.1, SVG Export Plug-In . SVG Version: 6.00 Build 0)  -->
<svg version="1.1" id="Layer_1" xmlns="http://www.w3.org/2000/svg" xmlns:xlink="http://www.w3.org/1999/xlink" x="0px" y="0px"
	 viewBox="0 0 1000 1000" style="enable-background:new 0 0 1000 1000;" xml:space="preserve">
<style type="text/css">
	.st0{fill:#FFE300;}
</style>
<g>
	<path class="st0" d="M173.5,531.1c17.4,17.4,45.5,17.4,62.8,0.1c17.2-17.2,17.2-45.3-0.2-62.7c-17.2-17.2-45.2-17.1-62.4,0.1
		C156.4,485.9,156.4,514,173.5,531.1"/>
	<path d="M539,528.5c0.7,0,1.3-0.3,1.8-0.7c0.6-0.5,0.7-1.1,0.7-1.8c0-0.7-0.2-1.4-0.7-1.8c-0.5-0.5-1.1-0.8-1.8-0.8
		c-0.8,0-1.4,0.3-1.8,0.8c-0.5,0.5-0.7,1.1-0.7,1.8c0,0.7,0.2,1.3,0.7,1.8C537.7,528.2,538.2,528.5,539,528.5"/>
	<path d="M474.5,551.8c0,0.9-0.6,1.7-1.5,2.3c-1,0.6-2,0.9-3.1,0.9c-0.7,0-1.5-0.2-2.1-0.7c-1-0.8-1.5-1.9-1.5-3.4
		c0-1.9,1.2-3.5,3.5-5c1.3-0.8,2.8-1.4,4.7-2.1V551.8z M480.1,555.1c-0.6,0-1.1-0.3-1.3-0.9c-0.1-0.3-0.2-1-0.2-1.9v-9.9
		c0-2.1-0.4-3.8-0.9-4.9c-1.1-2-3.3-3.1-6.5-3.1c-2.7,0-4.8,0.7-6.2,1.9c-1.4,1.2-2.1,2.4-2.1,3.6c0,0.6,0.2,1.1,0.5,1.6
		c0.5,0.5,1,0.7,1.8,0.7c0.5,0,0.8-0.1,1.2-0.3c0.6-0.4,0.9-1,0.9-1.9c0-0.1-0.1-0.4-0.1-0.9c0-0.5-0.1-0.8-0.1-1
		c0-0.8,0.4-1.4,1.1-1.9c0.7-0.4,1.5-0.6,2.4-0.6c1.7,0,2.8,0.5,3.3,1.6c0.4,0.7,0.6,1.8,0.6,3.5v2.1c-4.6,1.7-7.6,3-9.1,4
		c-2.3,1.7-3.6,3.6-3.6,6c0,1.5,0.5,2.8,1.6,3.8c1,0.9,2.2,1.4,3.6,1.4c1.4,0,2.7-0.4,4.2-1.3c0.9-0.5,2-1.3,3.3-2.4
		c0,1,0.3,1.8,0.7,2.5c0.5,0.7,1.3,1,2.4,1c1,0,1.8-0.3,2.8-0.9c0.6-0.4,1.2-0.9,1.7-1.6v-1.2c-0.6,0.4-1.1,0.7-1.3,0.8
		C480.7,555.1,480.4,555.1,480.1,555.1"/>
	<path d="M815.8,554.2c-1.8,1-4,1.5-6.5,1.5c-1.7,0-2.9-0.1-3.4-0.4c-0.5-0.3-0.7-0.8-0.7-1.7v-12.5c0.4,0.1,0.7,0.1,0.9,0.1h1.4
		c3.1,0,5.7,0.5,7.8,1.5c2.1,1.1,3.1,3,3.1,5.8C818.5,551.3,817.6,553.3,815.8,554.2 M805.2,527.9c0-0.8,0.1-1.3,0.3-1.5
		c0.2-0.2,0.8-0.3,1.9-0.3c2.8,0,4.9,0.3,6.2,0.8c2.4,1.1,3.7,3.1,3.7,6.1c0,2.5-1.1,4.3-3.3,5.3c-1,0.6-2.5,0.8-4.1,0.8l-4.7,0.1
		V527.9z M821.7,542.9c-1.6-1.3-3.6-2.2-5.9-2.8c1.8-0.5,3.3-1.1,4.2-1.8c1.6-1.2,2.5-3,2.5-5.4c0-3.1-1.1-5.4-3.5-6.7
		c-2.4-1.3-5.6-1.9-9.6-1.9h-14v0.9c2,0.1,3.3,0.4,3.9,1c0.5,0.6,0.9,1.7,0.9,3.6v22.2c0,1.9-0.3,3.1-0.9,3.6
		c-0.6,0.5-1.9,0.9-3.9,1v0.9h16.4c2.7,0,5.2-0.4,7-1.1c3.6-1.5,5.4-4.1,5.4-8.1C824.1,546,823.3,544.1,821.7,542.9"/>
	<path d="M871.3,553.5V542c0-3.2-0.9-5.4-2.6-6.6c-0.9-0.7-1.9-1-3.1-1c-1.3,0-2.6,0.4-3.8,1.2c-1,0.6-2.1,1.5-3.5,2.9v-3.5
		c0-0.2,0-0.3,0-0.4c0,0-0.1-0.1-0.3-0.1l-2.3,0.8c-2.5,0.7-4.1,1.2-4.8,1.4v0.8c0.3,0,0.4-0.1,0.6-0.1c0.2,0,0.4,0,0.5,0
		c1,0,1.6,0.3,1.8,0.9c0.2,0.4,0.3,1.2,0.3,2.2v12.6c0,1.5-0.2,2.4-0.6,2.9c-0.5,0.4-1.4,0.6-2.5,0.8v0.7h10.6v-0.7
		c-1.1,0-1.9-0.2-2.4-0.6c-0.5-0.4-0.8-1.2-0.8-2.3v-13.8c0.8-0.9,1.5-1.5,2.1-1.9c1-0.6,2-1,3-1c1.4,0,2.3,0.4,2.7,1.4
		c0.6,0.9,0.8,2.1,0.8,3.5v10.5c0,1.7-0.2,2.8-0.6,3.2c-0.4,0.5-1.3,0.8-2.5,1v0.7h10.5v-0.7c-1,0-1.9-0.2-2.3-0.8
		C871.6,555.5,871.3,554.7,871.3,553.5"/>
	<path d="M896.5,555.2c-1.2-1-2.9-3-5.2-6l-4.3-5.9l1.4-1.2c3.1-2.9,5.2-4.7,6.4-5.3c1.1-0.6,2.5-1,4.3-1.1V535h-10.2v0.7
		c1,0,1.6,0.1,2,0.2c0.3,0.1,0.5,0.3,0.5,0.7c0,0.2-0.1,0.4-0.3,0.7c-0.1,0.3-0.5,0.6-1,1l-6.7,6v-20.7c0-0.1,0-0.2,0-0.3
		c0-0.1-0.1-0.1-0.1-0.1c-0.1,0-0.5,0.2-1.3,0.4c-1.2,0.4-2.7,0.8-4.3,1.2l-2.2,0.6v0.7c0.2,0,0.6-0.1,0.8-0.1c0.3,0,0.4,0,0.8,0
		c0.7,0,1.3,0.1,1.7,0.4c0.4,0.3,0.5,1,0.5,2.2v24.7c0,1.4-0.2,2.2-0.7,2.7c-0.6,0.4-1.6,0.6-3.1,0.7v0.7h11.8v-0.7
		c-1.2,0-2-0.2-2.6-0.3c-0.7-0.4-1.3-1.2-1.3-2.3v-9.1l7.6,9.9c0.1,0.2,0.2,0.4,0.3,0.5c0.1,0.2,0.1,0.4,0.1,0.5
		c0,0.3-0.1,0.4-0.3,0.6c-0.2,0-0.5,0.1-0.8,0.1l-0.8,0v0.7h10.9v-0.7C898.9,556.7,897.7,556.2,896.5,555.2"/>
	<path d="M524.4,552c0,0.6-0.5,1.4-1.2,2.1c-0.8,0.8-1.7,1.1-3.1,1.1c-2.4,0-4.2-1-5.4-3c-1.3-2-1.8-4.4-1.8-7
		c0-2.6,0.5-4.9,1.7-6.7c1.2-1.8,2.8-2.7,4.8-2.7c1.1,0,2.2,0.5,3.3,1.3c1.2,0.9,1.7,2.4,1.7,4.5V552z M531,554.5
		c-1.1,0-1.9-0.2-2.1-0.6c-0.2-0.4-0.5-1.1-0.5-2.2l0.1-19.9c0-1,0-1.9,0-2.9c0-1,0.1-2,0.1-2.9l0-2.6l-0.2-0.1
		c-0.5,0.2-1,0.4-1.3,0.4c-0.5,0.2-1.2,0.4-1.9,0.6c-0.8,0.2-1.4,0.4-2.2,0.6l-2,0.5v0.8c0.6,0,0.8-0.1,1-0.1h0.6
		c0.9,0,1.4,0.2,1.6,0.6c0.2,0.4,0.4,1.1,0.4,2v7.7c-0.6-0.6-1.2-1-1.9-1.4c-1-0.5-2.1-0.8-3.3-0.8c-3,0-5.5,1.3-7.6,3.8
		c-2,2.5-3.1,5.6-3.1,9.1c0,2.9,0.8,5.3,2.6,7.4c1.7,2.2,4,3.2,6.7,3.2c1.6,0,2.9-0.3,4.1-1.1c0.7-0.4,1.4-1.1,2.4-2.2v3.2l0.2,0.1
		l3.8-1.4c2.3-0.8,3.6-1.2,3.6-1.3v-0.8c-0.2,0-0.4,0-0.6,0C531.4,554.5,531.1,554.5,531,554.5"/>
	<path d="M541.6,552.4v-17.6c0-0.1,0-0.2,0-0.4c-0.1,0-0.4,0.1-0.9,0.3c-1.1,0.5-3.1,1.2-6,2.1l-1.1,0.3v0.7
		c0.9-0.3,1.3-0.4,1.5-0.4c0.2,0,0.4,0,0.5,0c0.8,0,1.3,0.3,1.5,1c0.2,0.5,0.3,1.2,0.3,2.3v11.8c0,2-0.3,3.1-0.7,3.5
		c-0.5,0.5-1.6,0.7-3.3,0.9v0.7h11.9v-0.7c-1.5-0.1-2.6-0.4-3-0.9C541.8,555.5,541.6,554.3,541.6,552.4"/>
	<path d="M393.6,552.4v-10c0-1.9-0.2-3.4-0.8-4.6c-0.9-2.3-2.8-3.4-5.4-3.4c-1.6,0-3.2,0.5-4.6,1.5c-0.7,0.5-1.6,1.4-2.7,2.6v-15
		l-0.1-0.2l-2.3,0.7c-0.4,0.2-1.2,0.4-2.2,0.7c-1.1,0.3-2,0.5-2.7,0.8v0.9c0.2-0.1,0.5-0.1,0.6-0.1c0.2,0,0.3,0,0.5,0
		c0.9,0,1.5,0.2,1.7,0.7c0.2,0.4,0.4,1.1,0.4,2v23.4c0,1.8-0.2,3-0.7,3.4c-0.4,0.5-1.3,0.8-2.6,1v0.7h10.9v-0.7
		c-1.4-0.2-2.3-0.5-2.7-1c-0.4-0.4-0.7-1.6-0.7-3.4v-12c0-0.3,0.6-0.9,1.8-1.8c1.2-0.9,2.4-1.4,3.7-1.4c1.4,0,2.4,0.5,3,1.5
		c0.5,1,0.8,2.3,0.8,3.8v9.9c0,1.8-0.2,3-0.6,3.4c-0.5,0.5-1.4,0.8-2.8,1v0.7h10.7v-0.7c-1.2-0.1-2.1-0.5-2.5-1
		C393.8,555.3,393.6,554.2,393.6,552.4"/>
	<path d="M342.5,524.3l-0.2,8.6h1.2c0.5-2.7,1.3-4.4,2.3-5.2c1-0.8,2.9-1.2,5.8-1.2h2.6v25c0,2.2-0.3,3.6-0.8,4.1
		c-0.6,0.5-1.9,0.9-4,1.1v0.9H364v-0.9c-2-0.1-3.3-0.5-3.9-0.9c-0.6-0.5-0.9-1.7-0.9-3.6v-25.6h2.7c2.9,0,4.8,0.4,5.7,1.2
		c0.9,0.8,1.6,2.6,2.2,5.2h1.2l-0.3-8.6H342.5z"/>
	<path d="M449.3,539.2l-4.4-2.7c-1.7-1-2.8-2-3.6-2.9c-0.9-0.9-1.2-2-1.2-3.3c0-1.4,0.4-2.6,1.5-3.4c1-0.8,2.2-1.2,3.6-1.2
		c1.8,0,3.6,0.6,5.3,1.9c1.8,1.3,3.2,3.5,4,6.7h1.2l-1.1-10.7h-1c-0.1,0.5-0.3,0.9-0.6,1.2c-0.2,0.3-0.6,0.4-1.2,0.4
		c-0.2,0-1.1-0.3-2.8-0.8c-1.6-0.6-2.9-0.8-4.1-0.8c-2.7,0-5,0.9-6.8,2.6c-1.6,1.7-2.4,3.8-2.4,6.3c0,1.9,0.7,3.6,2.1,5.2
		c0.7,0.9,1.8,1.7,3,2.5l4.3,2.7c2.4,1.5,4.1,2.7,4.8,3.5c1.2,1.2,1.8,2.6,1.8,4.3c0,1.8-0.6,3.2-1.8,4.2c-1.2,1-2.5,1.5-4.1,1.5
		c-3,0-5.5-1.2-7.5-3.5c-1.1-1.3-2.2-3.1-3-5.4h-1.2l1.5,10.7h1.2c0.1-0.5,0.2-0.9,0.5-1.2c0.2-0.4,0.6-0.5,1.1-0.5
		c0.3,0,1.2,0.2,2.9,0.8c1.7,0.6,3.4,0.9,4.9,0.9c3.1,0,5.6-0.9,7.6-2.7c2-1.7,3-4,3-6.6c0-2-0.6-3.7-1.7-5.1
		C454,542.5,452.1,541,449.3,539.2"/>
	<path d="M403.2,538.9c1-1.6,2.3-2.5,4.3-2.5c1.8,0,3.2,0.7,4,2.2c0.4,0.8,0.8,2,0.9,3.6h-10.3C402.4,540.8,402.7,539.8,403.2,538.9
		 M414.4,553.2c-1.2,0.9-2.6,1.3-4.3,1.3c-2.1,0-3.9-0.8-5.5-2.6c-1.5-1.7-2.4-4.5-2.5-8.2h15.5c0-2.9-0.8-5.1-2.6-6.7
		c-1.8-1.6-3.8-2.4-6-2.4c-3.1,0-5.7,1.2-7.6,3.5c-2,2.4-3,5.2-3,8.5c0,3.1,0.9,5.7,2.5,8c1.8,2.3,4.1,3.5,7.1,3.5
		c2.7,0,5-0.9,6.8-2.6c1.8-1.8,3.1-3.7,3.7-5.8l-0.9-0.3C416.6,551,415.6,552.3,414.4,553.2"/>
	<path d="M503.7,554.5c-0.4-0.4-0.6-1.1-0.6-2.2v-17.4h-7.9v0.8c1.5,0.1,2.5,0.3,2.9,0.7c0.5,0.4,0.7,1.2,0.7,2.5v13.4
		c-0.6,0.7-1.2,1.3-1.8,1.7c-1.1,0.7-2.2,1.1-3.3,1.1c-1.6,0-2.6-0.6-3.2-1.9c-0.3-0.7-0.5-1.5-0.5-2.6v-15.6h-7.3v0.7
		c1.1,0.2,1.9,0.3,2.3,0.6c0.6,0.4,0.9,1.4,0.9,2.6v12.7c0,2.4,0.6,4.1,1.9,5.1c1.2,1,2.6,1.5,4,1.5c1.6,0,3-0.5,4.4-1.4
		c0.9-0.7,1.9-1.6,3-3v4.1c0,0.1,0,0.2,0,0.2c0,0.1,0.1,0.1,0.2,0.1c1.4-0.5,2.4-0.8,2.7-1c1.1-0.3,1.7-0.5,2.2-0.6
		c0.4-0.1,1.1-0.2,2-0.5v-0.7C505,555.1,504.2,555,503.7,554.5"/>
	<path d="M559.9,525.3c2,0.1,3.3,0.4,3.8,1c0.6,0.6,0.9,1.7,0.9,3.6v22.2c0,2-0.3,3.2-0.9,3.7c-0.5,0.5-1.9,0.8-3.8,0.9v0.9h14.6
		v-0.9c-2-0.1-3.3-0.5-3.8-0.9c-0.6-0.5-0.9-1.7-0.9-3.7v-22.2c0-1.9,0.3-3.1,0.9-3.6c0.5-0.5,1.9-0.9,3.8-1v-0.9h-14.6V525.3z"/>
	<path d="M726.3,538.9c1-1.6,2.4-2.5,4.3-2.5c1.9,0,3.2,0.7,4,2.2c0.5,0.8,0.7,2,1,3.6h-10.3C725.5,540.8,725.9,539.8,726.3,538.9
		 M737.6,553.2c-1.2,0.9-2.6,1.3-4.3,1.3c-2.1,0-4-0.8-5.5-2.6c-1.6-1.7-2.4-4.5-2.6-8.2h15.5c0-2.9-0.8-5.1-2.6-6.7
		c-1.7-1.6-3.7-2.4-6-2.4c-3.2,0-5.7,1.2-7.6,3.5c-1.9,2.4-2.9,5.2-2.9,8.5c0,3.1,0.8,5.7,2.5,8c1.7,2.3,4.1,3.5,7.2,3.5
		c2.6,0,4.8-0.9,6.7-2.6c1.9-1.8,3.2-3.7,3.7-5.8l-0.9-0.3C739.8,551,738.7,552.3,737.6,553.2"/>
	<path d="M764.1,553.5V542c0-3.2-0.9-5.4-2.6-6.6c-0.9-0.7-1.9-1-3-1c-1.4,0-2.7,0.4-4,1.2c-0.8,0.6-2,1.5-3.5,2.9v-3.5
		c0-0.2,0-0.3-0.1-0.4c0,0-0.2-0.1-0.2-0.1l-2.3,0.8c-2.5,0.7-4.1,1.2-4.9,1.4v0.8c0.3,0,0.5-0.1,0.7-0.1c0.1,0,0.2,0,0.4,0
		c1,0,1.5,0.3,1.9,0.9c0.2,0.4,0.4,1.2,0.4,2.2v12.6c0,1.5-0.3,2.4-0.8,2.9c-0.4,0.4-1.3,0.6-2.4,0.8v0.7h10.6v-0.7
		c-1.1,0-1.9-0.2-2.5-0.6c-0.4-0.4-0.7-1.2-0.7-2.3v-13.8c0.8-0.9,1.6-1.5,2-1.9c1.1-0.6,2-1,3-1c1.4,0,2.4,0.4,2.8,1.4
		c0.6,0.9,0.9,2.1,0.9,3.5v10.5c0,1.7-0.3,2.8-0.8,3.2c-0.5,0.5-1.3,0.8-2.5,1v0.7h10.5v-0.7c-1.1,0-1.8-0.2-2.4-0.8
		C764.3,555.5,764.1,554.7,764.1,553.5"/>
	<path d="M779.7,554.8c-0.4,0.2-0.9,0.4-1.5,0.4c-1.1,0-1.9-0.6-2.3-1.7c-0.2-0.6-0.2-1.6-0.2-2.8l0-14h5V535h-5v-6
		c0-0.2,0-0.3,0-0.3c0,0-0.2-0.1-0.5-0.1c-1.8,2.5-2.9,4-3.5,4.6c-0.4,0.6-1.3,1.4-2.4,2.3c-0.4,0.3-0.7,0.5-0.8,0.6
		c0,0.1,0,0.2,0,0.4c0,0,0,0.1,0,0.2c0,0.1,0.1,0.1,0.2,0.2h2.6v14.8c0,1.7,0.2,2.9,0.6,3.9c0.6,1.7,2,2.5,3.9,2.5
		c1,0,1.8-0.1,2.8-0.7c0.9-0.5,1.8-1.3,2.7-2.4l0.5-0.8l-0.6-0.5C780.7,554.1,780.1,554.5,779.7,554.8"/>
	<path d="M679.4,554.8c-0.4,0.2-0.9,0.4-1.5,0.4c-1.1,0-1.9-0.6-2.3-1.7c-0.2-0.6-0.3-1.6-0.3-2.8l0.1-14h5.1V535h-5v-6
		c0-0.2,0-0.3,0-0.3c-0.1,0-0.2-0.1-0.4-0.1c-1.8,2.5-3,4-3.6,4.6c-0.4,0.6-1.2,1.4-2.4,2.3c-0.4,0.3-0.6,0.5-0.7,0.6
		c-0.1,0.1-0.1,0.2-0.1,0.4c0,0,0,0.1,0,0.2c0,0.1,0.1,0.1,0.2,0.2h2.7v14.8c0,1.7,0.2,2.9,0.6,3.9c0.6,1.7,2,2.5,3.9,2.5
		c0.9,0,1.8-0.1,2.7-0.7c0.9-0.5,1.9-1.3,2.7-2.4l0.6-0.8l-0.7-0.5C680.4,554.1,679.9,554.5,679.4,554.8"/>
	<path d="M716.7,553.7v-10.1c0-2.6-0.2-4.5-0.8-5.7c-0.8-2.2-2.6-3.2-5.3-3.2c-1.6,0-3.1,0.5-4.6,1.5c-0.9,0.6-2,1.5-3.2,2.7
		c-0.3-1.1-0.7-1.9-1.2-2.5c-1-1.1-2.4-1.7-4-1.7c-1.2,0-2.4,0.3-3.6,0.8c-1.1,0.6-2.5,1.6-4.1,3.1v-3.3c0-0.2,0-0.4,0-0.5
		c0-0.1-0.1-0.1-0.2-0.1c-0.1,0-0.8,0.3-2.3,0.8c-1.5,0.6-2.6,1-3.2,1.2l-1.7,0.5v0.9c0.3-0.1,0.4-0.1,0.6-0.2c0.1,0,0.4,0,0.7,0
		c0.8,0,1.3,0.2,1.6,0.5c0.3,0.4,0.4,1.2,0.4,2.4v12.6c0,1.4-0.3,2.3-0.9,2.8c-0.4,0.4-1.3,0.5-2.5,0.6v0.7h11.2v-0.7
		c-1.4,0-2.4-0.2-2.9-0.7c-0.4-0.5-0.6-1.3-0.6-2.5v-13.5c0.7-0.9,1.5-1.6,2.4-2.2c1-0.5,2-0.8,3-0.8c1.8,0,2.9,0.8,3.4,2.4
		c0.3,1,0.5,2.7,0.5,5.2v6.8c0,2.3-0.2,3.6-0.6,4.1c-0.5,0.5-1.5,0.9-3,1.1v0.7H707v-0.7c-1.6,0-2.5-0.4-3-1.1
		c-0.4-0.7-0.7-1.7-0.7-2.9v-12.6c0.8-0.9,1.6-1.6,2.2-2c1.1-0.7,2.1-1.1,3.2-1.1c1.7,0,2.9,0.7,3.6,2c0.3,0.8,0.4,1.9,0.4,3.6v10.6
		c0,1.3-0.2,2.2-0.6,2.7c-0.5,0.4-1.5,0.7-2.9,0.8v0.7h11.1v-0.7c-1.4-0.1-2.3-0.3-2.8-0.8C717,555.6,716.7,554.8,716.7,553.7"/>
	<path d="M597,553.5V542c0-3.2-1-5.4-2.7-6.6c-1-0.7-1.9-1-3-1c-1.3,0-2.7,0.4-4,1.2c-0.9,0.6-2,1.5-3.5,2.9v-3.5
		c0-0.2,0-0.3-0.1-0.4c-0.1,0-0.1-0.1-0.2-0.1l-2.3,0.8c-2.5,0.7-4.1,1.2-4.8,1.4v0.8c0.2,0,0.5-0.1,0.6-0.1c0.2,0,0.3,0,0.5,0
		c1,0,1.6,0.3,1.9,0.9c0.2,0.4,0.3,1.2,0.3,2.2v12.6c0,1.5-0.2,2.4-0.7,2.9c-0.5,0.4-1.3,0.6-2.4,0.8v0.7h10.7v-0.7
		c-1.2,0-2-0.2-2.5-0.6c-0.5-0.4-0.8-1.2-0.8-2.3v-13.8c0.9-0.9,1.5-1.5,2.2-1.9c1-0.6,1.9-1,2.9-1c1.4,0,2.3,0.4,2.8,1.4
		c0.5,0.9,0.8,2.1,0.8,3.5v10.5c0,1.7-0.3,2.8-0.8,3.2c-0.4,0.5-1.3,0.8-2.6,1v0.7H600v-0.7c-1.1,0-1.9-0.2-2.4-0.8
		C597.1,555.5,597,554.7,597,553.5"/>
	<path d="M617.6,535.4c0.7,0,1.2,0.1,1.5,0.3c0.7,0.3,0.9,0.8,0.9,1.4c0,0.3-0.1,0.8-0.2,1.4c-0.2,0.6-0.4,1.1-0.6,1.7l-4.4,10.9
		l-5.2-12.4c-0.2-0.4-0.3-0.8-0.4-1.1c0-0.2-0.1-0.4-0.1-0.7c0-0.5,0.1-0.8,0.5-1.1c0.4-0.1,1-0.3,1.8-0.4v-0.7h-9.8v0.7
		c0.8,0.1,1.3,0.3,1.7,0.6c0.7,0.5,1.3,1.5,1.9,3l7.5,18c0.1,0.3,0.3,0.5,0.4,0.7c0.1,0.1,0.2,0.2,0.3,0.2c0.2,0,0.3,0,0.5-0.1
		c0.1-0.1,0.2-0.3,0.4-0.7l7-17.7c0.5-1.7,1.2-2.7,1.5-3.2c0.3-0.5,0.9-0.7,1.8-0.9v-0.7h-7V535.4z"/>
	<path d="M660.3,544.8l-3.2-1.7c-2.3-1.2-3.4-2.5-3.4-4c0-1,0.4-1.8,1-2.5c0.7-0.7,1.6-1,2.7-1c2,0,3.4,0.8,4.4,2.4
		c0.6,0.9,1,2.1,1.4,3.7h0.7l-0.1-6.8h-0.5c-0.1,0.1-0.3,0.3-0.4,0.3c-0.1,0.1-0.3,0.1-0.6,0.1c-0.2,0-0.7-0.2-1.8-0.5
		c-1-0.3-2-0.5-2.8-0.5c-2,0-3.7,0.6-5,1.7c-1.3,1.2-1.9,2.7-1.9,4.5c0,1.5,0.5,2.8,1.4,3.9c1,1.1,2.4,2.2,4.5,3.3l2.7,1.5
		c1.1,0.6,1.7,1.2,2.2,1.9c0.4,0.6,0.5,1.3,0.5,2c0,1.1-0.3,2-1,2.7c-0.7,0.7-1.7,1-2.9,1c-2.2,0-3.9-0.9-5-2.7
		c-0.7-1-1.2-2.5-1.6-4.3h-0.8v7.9h0.7c0.1-0.2,0.3-0.4,0.4-0.5c0.2-0.1,0.3-0.2,0.5-0.2c0.2,0,0.9,0.2,2.2,0.5
		c1.2,0.4,2.3,0.5,3.3,0.5c2.3,0,4.1-0.6,5.6-1.8c1.5-1.2,2.2-2.8,2.2-4.7C665.6,548.9,663.8,546.7,660.3,544.8"/>
	<path d="M631.7,538.9c1-1.6,2.4-2.5,4.2-2.5c1.9,0,3.2,0.7,4.1,2.2c0.4,0.8,0.7,2,0.9,3.6h-10.4
		C630.8,540.8,631.2,539.8,631.7,538.9 M642.8,553.2c-1.1,0.9-2.6,1.3-4.3,1.3c-2.1,0-3.9-0.8-5.5-2.6c-1.6-1.7-2.5-4.5-2.6-8.2H646
		c0-2.9-0.8-5.1-2.6-6.7c-1.8-1.6-3.7-2.4-6.1-2.4c-3.1,0-5.7,1.2-7.6,3.5c-1.9,2.4-2.8,5.2-2.8,8.5c0,3.1,0.8,5.7,2.5,8
		c1.7,2.3,4,3.5,7.1,3.5c2.6,0,4.9-0.9,6.8-2.6c1.8-1.8,3.1-3.7,3.7-5.8l-0.9-0.3C645.1,551,644,552.3,642.8,553.2"/>
	<path d="M842.2,551.8c0,0.9-0.4,1.7-1.5,2.3c-0.9,0.6-2,0.9-3.1,0.9c-0.9,0-1.5-0.2-2.1-0.7c-1.1-0.8-1.5-1.9-1.5-3.4
		c0-1.9,1.2-3.5,3.6-5c1.2-0.8,2.8-1.4,4.6-2.1V551.8z M847.8,555.1c-0.6,0-1.1-0.3-1.3-0.9c-0.1-0.3-0.1-1-0.1-1.9v-9.9
		c0-2.1-0.4-3.8-0.9-4.9c-1.2-2-3.3-3.1-6.5-3.1c-2.7,0-4.8,0.7-6.2,1.9c-1.4,1.2-2.2,2.4-2.2,3.6c0,0.6,0.2,1.1,0.7,1.6
		c0.3,0.5,0.9,0.7,1.7,0.7c0.5,0,0.9-0.1,1.3-0.3c0.6-0.4,0.9-1,0.9-1.9c0-0.1-0.1-0.4-0.1-0.9c0-0.5,0-0.8,0-1c0-0.8,0.4-1.4,1-1.9
		c0.8-0.4,1.6-0.6,2.4-0.6c1.8,0,2.9,0.5,3.5,1.6c0.3,0.7,0.4,1.8,0.4,3.5v2.1c-4.5,1.7-7.4,3-9,4c-2.4,1.7-3.6,3.6-3.6,6
		c0,1.5,0.6,2.8,1.6,3.8c1,0.9,2.3,1.4,3.6,1.4c1.4,0,2.8-0.4,4.3-1.3c0.9-0.5,2-1.3,3.1-2.4c0.1,1,0.4,1.8,0.9,2.5
		c0.5,0.7,1.3,1,2.4,1c0.9,0,1.8-0.3,2.8-0.9c0.6-0.4,1.2-0.9,1.7-1.6v-1.2c-0.6,0.4-1,0.7-1.3,0.8
		C848.5,555.1,848.2,555.1,847.8,555.1"/>
	<path d="M350.7,493.9v10.7c0,3.7-0.8,8.6-8.4,6.6c6.9,5.4,15.6,1.1,15.6-6.2v-17.4C356.1,492.8,352.7,493.9,350.7,493.9
		 M655.1,488.9c0,0-1.2,0.4-2.2,0.7c-3.9,0.9-5,2.2-5,5v2.7h7.2v-3.4V488.9z M741.7,441.8c1.5,1.7,3.4,3.7,6.7,6.1v56.7h-86.1v0.4
		c0,7.3-8.7,11.6-15.6,6.2c7.6,2,8.4-2.9,8.4-6.6v-0.1h-14.3v-10.2c0-5.5,2.5-9.9,10.4-11.3c5.3-1,8.9-2,11.2-3.9v8.4v0v9.8h6.7
		v-6.8c0-3.9,2.5-6.6,7.8-6.6h7.5v5.3h-6.6c-1.2,0-1.6,0.6-1.6,2.2v6H699v-10.3c1.1-0.2,2.1-0.4,3.2-0.6c1.3-0.3,2.7-0.7,4-1v11.9
		h7.1v-14.2c2.5-0.9,4.9-1.9,7.2-3.1v17.3h7V476c2.9-1.9,5.2-3.9,7.2-6v27.4h7.1V441.8z M386.4,506.2c2.8,0,4.9-2.2,4.9-5
		c0-2.8-2.2-5-4.9-5c-2.7,0-4.9,2.2-4.9,5C381.5,504,383.7,506.2,386.4,506.2 M480.5,476c2.8-1.9,5.3-3.9,7.2-6v34.6h-90.6
		c-1.4,4.6-5.7,7.9-10.7,7.9c-5,0-9.3-3.3-10.6-7.9h-11.2v-56.9c1.3-0.7,4.5-2.6,7.2-5.8v55.5h4.2c1.6-4.2,5.7-7.2,10.4-7.2
		c4.8,0,8.8,3,10.4,7.2h17v-22c2.8-1.6,5.7-3.6,7.2-5.3v27.3h16.8v-22c3-1.6,5.7-3.6,7.1-5.4v27.4l7.1,0v-10.2c1-0.2,2-0.4,3.1-0.6
		c1.4-0.3,2.6-0.6,4.1-1v11.9h7.2v-14.2c2.4-1,4.8-2,7.1-3.1v17.3h7.1V476z M417.2,455c2,0,3.5-1.6,3.5-3.6c0-2-1.6-3.6-3.5-3.6
		c-2.1,0-3.5,1.6-3.5,3.6C413.7,453.4,415.1,455,417.2,455 M848.2,460.7c2,0,3.6-1.6,3.6-3.6c0-1.9-1.6-3.5-3.6-3.5
		c-1.9,0-3.6,1.6-3.6,3.5C844.6,459.1,846.3,460.7,848.2,460.7 M864.3,508c-2,0-3.6,1.6-3.6,3.6c0,1.9,1.6,3.6,3.6,3.6
		c2,0,3.5-1.6,3.5-3.6C867.8,509.6,866.2,508,864.3,508 M581.4,508c-2,0-3.6,1.6-3.6,3.6c0,1.9,1.6,3.6,3.6,3.6c2,0,3.6-1.6,3.6-3.6
		C585,509.6,583.4,508,581.4,508 M572.3,508c-2,0-3.5,1.6-3.5,3.6c0,1.9,1.5,3.6,3.5,3.6c2,0,3.6-1.6,3.6-3.6
		C575.8,509.6,574.2,508,572.3,508 M446.9,462.4c1.9,0,3.5-1.6,3.5-3.5c0-2-1.6-3.6-3.5-3.6c-1.9,0-3.5,1.6-3.5,3.6
		C443.4,460.8,445,462.4,446.9,462.4 M437.8,462.4c2,0,3.6-1.6,3.6-3.5c0-2-1.5-3.6-3.6-3.6c-1.9,0-3.6,1.6-3.6,3.6
		C434.3,460.8,435.9,462.4,437.8,462.4 M418.1,458.8c0,1.9,1.6,3.5,3.6,3.5c2,0,3.6-1.6,3.6-3.5c0-2-1.6-3.5-3.6-3.5
		C419.7,455.3,418.1,456.9,418.1,458.8 M412.6,462.4c2,0,3.6-1.6,3.6-3.5c0-2-1.6-3.6-3.6-3.6c-2,0-3.6,1.6-3.6,3.6
		C409,460.8,410.6,462.4,412.6,462.4 M622.4,483.5h-8.3v5.6h6.4c3.9,0,4.5,2,4.5,5v3.2h-10.6v7.2h17.7v-12
		C632.1,487.5,628.9,483.5,622.4,483.5 M583.9,478.3c0,2.4,0,11.7,0,12h13.9v7h-38.1v-15.8c-2.5,3-6.2,4.9-7.3,5.6v17.4h52.6v-20.7
		h-14.3V479c0-7.4,8.2-11.1,14.4-11.7v-7C587.8,463.4,583.9,473.4,583.9,478.3 M819.3,476.2h-12.4v-3.5c0-3,0.4-3.7,4.2-3.7
		c3.5,0,4.6-0.6,5.1-1v-2.6c-0.9,0.5-1.4,0.8-3.5,0.8h-5.2c-2.6,0-4.8,1.8-4.8,5v4.9h-10.1c-0.5,0.8-1.5,2.6-2.6,4.5h29.4V476.2z
		 M878,441.8v55.5h-9.6V470c-2,2.2-5.6,4.1-7.1,5.2v22.1h-10.6V470c-2.1,2.3-5.8,4.3-7.2,5.4v21.9H835v-55.7
		c-2.3,2.5-5.4,4.9-7.1,6.1v49.6h-44c-1.4,0-2.5-0.6-3.3-1.2c-0.8,2.5-2.5,8.4-2.5,8.4h106.7v-56.8
		C881.8,445.6,879.5,443.5,878,441.8 M529.1,447.6v49.7h-8.5v-49.7c-1.3-0.7-4.4-2.6-7.1-5.8v55.5h-15.8v7.2h38.5v-62.7
		C533.6,445,530.4,446.9,529.1,447.6 M505,441.8c-2.7,3.2-5.8,5-7.1,5.8v41.9h7.1V441.8z M756.9,447.6v56.9h7.1v-62.7
		C761.3,445.1,758.1,446.9,756.9,447.6 M893.1,447.6c1.3-0.7,4.5-2.6,7.1-5.8v62.7h-7.1V447.6z"/>
	<path d="M171.5,459.7c-1.8,1.8-1.8,4.8,0,6.6L161,455.8c-8-8-8-21,0-28.9l43.9-43.9l43.9,43.9c8,8,8,21,0,28.9l-10.5,10.5
		c1.8-1.8,1.8-4.8,0-6.6L205,426.3L171.5,459.7z"/>
	<path d="M199.6,568.3c3.6,3.6,5.4,8.3,5.3,13l0,0c0-4.7,1.8-9.4,5.3-13l68.3-68.3l-33.1-33.1l21.7-21.7l36.2,36.2
		c10.2,10.2,10.2,27,0,37.2L205,617l-98.4-98.4c-10.2-10.2-10.2-27,0-37.2l36.2-36.2l21.7,21.7L131.3,500L199.6,568.3z"/>
</g>
</svg>
