<svg version="1.0" xmlns="http://www.w3.org/2000/svg"
 width="512.000000pt" height="512.000000pt" viewBox="0 0 512.000000 512.000000"
 preserveAspectRatio="xMidYMid meet">

<g transform="translate(0.000000,512.000000) scale(0.100000,-0.100000)"
fill="#000000" stroke="none">
<path d="M2560 4867 c-49 -16 -133 -102 -148 -153 -9 -31 -12 -215 -12 -713
l0 -672 -25 -24 c-15 -16 -36 -25 -55 -25 -19 0 -40 9 -55 25 -25 24 -25 26
-25 216 0 230 -6 256 -75 324 -56 57 -102 75 -189 75 l-56 0 0 80 0 80 -160 0
-160 0 0 80 0 80 -80 0 -80 0 0 160 0 160 -320 0 -320 0 0 -160 0 -160 -80 0
-80 0 0 -80 0 -80 -240 0 -240 0 0 -240 0 -240 240 0 240 0 0 -80 0 -80 120 0
120 0 0 -160 0 -160 80 0 81 0 -3 -82 -3 -82 -71 -12 c-141 -23 -277 -77 -392
-156 -73 -49 -205 -186 -256 -265 -165 -255 -200 -568 -96 -856 91 -251 316
-476 567 -567 359 -130 739 -45 1009 224 198 199 295 447 281 721 -14 254
-101 448 -282 630 -147 146 -291 225 -480 261 -49 9 -96 18 -102 20 -9 2 -13
28 -13 84 l0 80 80 0 80 0 0 160 0 160 120 0 120 0 0 80 0 80 160 0 160 0 0
80 0 80 55 0 c46 0 60 -4 80 -25 25 -24 25 -26 25 -216 0 -230 6 -256 75 -324
73 -74 151 -92 248 -59 57 19 128 93 145 152 9 29 12 221 12 711 l0 672 25 24
c21 22 33 25 95 25 62 0 74 -3 95 -25 l25 -24 0 -472 c0 -341 3 -483 12 -513
16 -55 99 -138 154 -154 23 -7 60 -12 83 -12 22 0 41 -1 41 -3 0 -1 -15 -39
-34 -83 -227 -539 -233 -1160 -14 -1708 289 -728 960 -1267 1728 -1391 126
-20 137 -19 165 10 l25 24 0 2191 0 2191 -26 26 c-24 24 -30 25 -87 19 -394
-43 -837 -235 -1152 -498 -178 -149 -345 -338 -465 -531 l-55 -87 -83 0 c-75
0 -85 2 -107 25 l-25 24 0 472 c0 335 -3 483 -12 511 -17 59 -88 133 -145 152
-54 18 -189 20 -243 3z m2240 -522 c0 -242 -2 -285 -14 -285 -8 0 -62 -15
-120 -34 -239 -79 -428 -196 -611 -380 -226 -227 -358 -472 -426 -796 -32
-150 -32 -429 0 -578 69 -327 200 -571 426 -798 183 -184 373 -301 613 -380
57 -19 110 -34 118 -34 12 0 14 -43 14 -285 l0 -285 -22 5 c-345 76 -565 164
-796 319 -502 336 -826 843 -919 1441 -24 151 -24 459 0 610 135 865 766 1544
1617 1739 58 14 108 25 113 25 4 1 7 -127 7 -284z m-3520 -25 l0 -80 -160 0
-160 0 0 80 0 80 160 0 160 0 0 -80z m160 -480 l0 -240 -320 0 -320 0 0 240 0
240 320 0 320 0 0 -240z m-800 0 l0 -80 -160 0 -160 0 0 80 0 80 160 0 160 0
0 -80z m1120 0 l0 -80 -80 0 -80 0 0 80 0 80 80 0 80 0 0 -80z m3040 -192 l0
-253 -180 180 c-203 203 -196 181 -72 237 70 32 218 86 240 87 9 1 12 -56 12
-251z m-248 -235 l248 -248 0 -605 0 -605 -249 -249 -249 -249 -39 31 c-46 37
-167 161 -211 217 l-32 40 270 270 c243 243 270 274 270 303 0 22 -9 41 -25
57 l-24 25 -369 0 -369 0 -7 38 c-8 48 -8 196 0 245 l7 37 369 0 369 0 24 25
c16 16 25 35 25 57 0 29 -27 60 -270 303 l-270 271 53 64 c53 64 213 220 225
220 4 0 118 -111 254 -247z m-3352 -53 l0 -80 -80 0 -80 0 0 80 0 80 80 0 80
0 0 -80z m2844 -478 c-130 -1 -239 0 -242 2 -8 9 49 178 89 266 l40 84 174
-174 175 -175 -236 -3z m-2924 -242 l80 0 0 79 0 79 68 -13 c83 -16 200 -61
264 -101 l48 -30 -55 -54 c-30 -30 -55 -58 -55 -63 0 -12 96 -107 107 -107 4
0 33 26 65 57 57 56 57 57 78 38 70 -64 160 -246 185 -377 l13 -68 -79 0 -79
0 0 -80 0 -80 79 0 79 0 -13 -67 c-22 -117 -81 -248 -150 -337 -15 -19 -16
-19 -53 17 -21 20 -42 37 -47 37 -13 0 -105 -92 -105 -104 0 -6 17 -27 38 -49
l37 -38 -25 -19 c-129 -98 -316 -160 -480 -160 -193 0 -418 89 -540 214 l-44
46 37 38 c20 21 37 42 37 47 0 13 -92 105 -105 105 -6 0 -24 -13 -40 -30 -26
-27 -29 -28 -41 -12 -23 30 -75 173 -89 244 l-13 68 79 0 79 0 0 80 0 80 -79
0 -79 0 13 68 c7 37 25 98 40 137 26 69 110 215 124 215 4 0 22 -16 41 -35 19
-19 38 -35 43 -35 11 0 107 95 107 107 0 5 -16 24 -35 43 -19 19 -35 37 -35
41 0 14 145 98 215 125 39 14 99 31 135 38 l65 12 3 -78 3 -78 79 0z m3160
-403 c0 -1 -78 -80 -174 -176 l-174 -174 -32 62 c-29 59 -100 256 -100 280 0
8 69 11 240 11 132 0 240 -1 240 -3z m516 -1015 c-8 -8 -169 50 -265 95 l-94
45 179 179 179 179 3 -246 c1 -136 0 -249 -2 -252z"/>
<path d="M3768 3888 c-113 -111 -181 -192 -261 -313 -234 -356 -341 -791 -296
-1203 67 -620 436 -1163 980 -1442 l97 -50 31 71 c18 39 31 73 29 74 -2 2 -39
22 -82 45 -768 403 -1104 1307 -786 2113 85 213 208 397 381 570 l109 109 -47
59 c-27 32 -51 59 -54 59 -3 0 -48 -42 -101 -92z"/>
<path d="M4480 880 c-18 -38 -32 -71 -29 -74 9 -8 151 -77 154 -74 7 8 65 128
65 136 0 6 -141 82 -153 82 -2 0 -18 -31 -37 -70z"/>
<path d="M1040 3840 l0 -80 80 0 80 0 0 80 0 80 -80 0 -80 0 0 -80z"/>
<path d="M717 2402 c-26 -26 -47 -52 -47 -57 0 -5 52 -62 116 -126 l117 -117
-12 -32 c-28 -82 -6 -166 64 -235 69 -70 153 -92 234 -64 32 11 34 11 110 -65
42 -42 81 -76 87 -76 12 0 104 92 104 105 0 5 -34 44 -76 86 -76 76 -76 78
-65 110 26 76 6 160 -56 229 -64 71 -159 98 -243 69 l-32 -12 -117 117 c-64
64 -121 116 -127 116 -5 0 -31 -22 -57 -48z m458 -347 c16 -15 25 -36 25 -55
0 -19 -9 -40 -25 -55 -15 -16 -36 -25 -55 -25 -19 0 -40 9 -55 25 -16 15 -25
36 -25 55 0 19 9 40 25 55 15 16 36 25 55 25 19 0 40 -9 55 -25z"/>
</g>
</svg>
